<svg width="821" height="821" viewBox="0 0 821 821" fill="none" xmlns="http://www.w3.org/2000/svg">
<path d="M89.5 727.779H732.102" stroke="#263238" stroke-width="1.63971" stroke-linecap="round" stroke-linejoin="round"/>
<path d="M479.621 395.527V154.26H494.559" stroke="#263238" stroke-width="1.63971" stroke-linecap="round" stroke-linejoin="round"/>
<path d="M479.621 424.239V417.844" stroke="#263238" stroke-width="1.63971" stroke-linecap="round" stroke-linejoin="round"/>
<path d="M532.977 154.26H687.126V446.735H479.621" stroke="#263238" stroke-width="1.63971" stroke-linecap="round" stroke-linejoin="round"/>
<path d="M514.086 154.26H527.63" stroke="#263238" stroke-width="1.63971" stroke-linecap="round" stroke-linejoin="round"/>
<path d="M679.321 162.049H487.426V438.947H679.321V162.049Z" stroke="#263238" stroke-width="1.63971" stroke-linecap="round" stroke-linejoin="round"/>
<path d="M670.399 176.869V291.862H496.344V284.352" stroke="#263238" stroke-width="1.63971" stroke-linecap="round" stroke-linejoin="round"/>
<path d="M496.344 266.779V170.217H670.399" stroke="#263238" stroke-width="1.63971" stroke-linecap="round" stroke-linejoin="round"/>
<path d="M496.344 278.599V271.303" stroke="#263238" stroke-width="1.63971" stroke-linecap="round" stroke-linejoin="round"/>
<path d="M641 300.49H679.32" stroke="#263238" stroke-width="1.63971" stroke-linecap="round" stroke-linejoin="round"/>
<path d="M627.375 300.49H632.803" stroke="#263238" stroke-width="1.63971" stroke-linecap="round" stroke-linejoin="round"/>
<path d="M487.426 300.49H620.915" stroke="#263238" stroke-width="1.63971" stroke-linecap="round" stroke-linejoin="round"/>
<path d="M573.727 291.865V287.896H589.779V290.143H583.384V291.865" stroke="#263238" stroke-width="1.63971" stroke-linecap="round" stroke-linejoin="round"/>
<path d="M487.758 404.056C487.758 404.056 490.431 406.073 492.3 418.272C492.3 418.272 495.579 398.792 499.416 398.497C503.253 398.202 502.532 411.156 502.532 411.156C502.532 411.156 503.188 404.777 506.237 405.072C509.287 405.368 506.237 418.19 506.237 418.19C506.237 418.19 509.91 408.122 513.386 408.352C516.863 408.581 511.091 426.585 511.091 426.585C511.091 426.585 520.011 420.125 523.618 423.306C527.226 426.487 521.618 434.423 521.618 434.423C521.618 434.423 534.408 431.652 536.375 439.162" stroke="#263238" stroke-width="1.63971" stroke-linecap="round" stroke-linejoin="round"/>
<path d="M536.387 431.93C536.387 431.93 541.962 428.273 546.356 429.978C546.356 429.978 543.569 425.731 546.356 423.141C549.144 420.55 552.718 429.978 552.718 429.978C552.718 429.978 553.128 414.155 558.703 414.959C564.278 415.762 558.703 429.978 558.703 429.978C558.703 429.978 568.656 421.157 571.05 424.223C573.444 427.289 569.41 431.93 569.41 431.93C571.21 431.418 573.111 431.384 574.928 431.83C576.745 432.275 578.415 433.185 579.773 434.471C579.773 434.471 586.447 427.666 593.859 426.682C593.859 426.682 588.939 412.368 591.317 409.482C593.695 406.596 598.056 421.976 598.056 421.976C598.056 421.976 599.958 411.974 606.255 411.187C606.255 411.187 601.057 408.367 602.598 404.087C604.14 399.808 611.305 405.104 611.305 405.104C611.305 405.104 608.354 397.578 613.027 395.512C617.7 393.446 619.586 401.808 619.586 401.808C619.586 401.808 620.897 393.052 626.374 393.61C631.851 394.167 630.08 404.169 630.08 404.169C630.08 404.169 635.245 396.167 638.016 396.971C643.542 398.611 641.869 411.269 641.869 411.269C641.869 411.269 649.576 405.907 651.576 408.383C653.577 410.859 643.542 417.91 643.542 417.91C643.542 417.91 651.199 418.746 655.971 423.223" stroke="#263238" stroke-width="1.63971" stroke-linecap="round" stroke-linejoin="round"/>
<path d="M679.321 407.003C679.321 407.003 678.435 398.969 670.401 398.543C662.366 398.116 672.614 416.169 672.614 416.169C672.614 416.169 665.973 410.676 663.596 412.365C661.218 414.054 670.401 423.368 670.401 423.368C670.401 423.368 665.99 419.285 661.349 420.547C656.709 421.81 663.989 434.747 663.989 434.747C657.124 433.372 649.999 434.211 643.641 437.141" stroke="#263238" stroke-width="1.63971" stroke-linecap="round" stroke-linejoin="round"/>
<path d="M405.371 655.988V727.348" stroke="#263238" stroke-width="1.63971" stroke-linecap="round" stroke-linejoin="round"/>
<path d="M405.371 632.643V647.925" stroke="#263238" stroke-width="1.63971" stroke-linecap="round" stroke-linejoin="round"/>
<path d="M104.977 727.777V594.797H405.371V623.984" stroke="#263238" stroke-width="1.63971" stroke-linecap="round" stroke-linejoin="round"/>
<path d="M148.739 609.342H122.668V715.579" stroke="#263238" stroke-width="1.63971" stroke-linecap="round" stroke-linejoin="round"/>
<path d="M387.679 727.352V609.342H163.875" stroke="#263238" stroke-width="1.63971" stroke-linecap="round" stroke-linejoin="round"/>
<path d="M375.183 581.021H366.902" stroke="#263238" stroke-width="1.63971" stroke-linecap="round" stroke-linejoin="round"/>
<path d="M355.016 581.021H97.5156V594.697H412.832V581.021H380.464" stroke="#263238" stroke-width="1.63971" stroke-linecap="round" stroke-linejoin="round"/>
<path d="M115.273 493.395C115.273 493.395 139.869 495.346 140.984 513.547C140.984 513.547 115.979 525.057 115.273 493.395Z" stroke="#263238" stroke-width="1.63971" stroke-linecap="round" stroke-linejoin="round"/>
<path d="M164.086 497.924C164.086 497.924 177.876 479.281 200.16 488.84C200.16 488.84 186.55 511.37 164.086 497.924Z" stroke="#263238" stroke-width="1.63971" stroke-linecap="round" stroke-linejoin="round"/>
<path d="M198.276 439.057C198.276 439.057 202.244 474.917 169.598 465.046C169.598 465.046 179.961 438.68 198.276 439.057Z" stroke="#263238" stroke-width="1.63971" stroke-linecap="round" stroke-linejoin="round"/>
<path d="M158.181 419.086C158.181 419.086 184.006 433.023 165.018 454.143C165.018 454.143 146.916 439.058 158.181 419.086Z" stroke="#263238" stroke-width="1.63971" stroke-linecap="round" stroke-linejoin="round"/>
<path d="M126.426 451.144C126.426 451.144 154.498 448.324 154.498 474.297C154.498 474.297 126.426 475.412 126.426 451.144Z" stroke="#263238" stroke-width="1.63971" stroke-linecap="round" stroke-linejoin="round"/>
<path d="M147.459 528.224C147.05 519.501 147.05 508.285 152.379 496.43C164.66 469.08 168.776 446.042 162.397 429.809" stroke="#263238" stroke-width="1.63971" stroke-linecap="round" stroke-linejoin="round"/>
<path d="M135.641 458.158C135.641 458.158 152.464 464.848 158.187 482.18" stroke="#263238" stroke-width="1.63971" stroke-linecap="round" stroke-linejoin="round"/>
<path d="M189.438 453.404C189.438 453.404 179.715 466.653 163.203 465.227" stroke="#263238" stroke-width="1.63971" stroke-linecap="round" stroke-linejoin="round"/>
<path d="M189.44 492.594C189.44 492.594 162.499 500.35 151.727 497.808" stroke="#263238" stroke-width="1.63971" stroke-linecap="round" stroke-linejoin="round"/>
<path d="M123.309 501.6C123.309 501.6 135.36 514.816 147.462 514.603" stroke="#263238" stroke-width="1.63971" stroke-linecap="round" stroke-linejoin="round"/>
<path d="M179.483 528.227H120.962C120.583 528.227 120.221 528.377 119.953 528.644C119.685 528.912 119.535 529.275 119.535 529.653V534.097C119.535 534.283 119.572 534.468 119.644 534.64C119.716 534.812 119.821 534.968 119.954 535.1C120.087 535.231 120.244 535.334 120.417 535.404C120.59 535.474 120.775 535.509 120.962 535.507H122.601L127.816 581.025H172.547L177.761 535.507H179.483C179.669 535.509 179.853 535.474 180.025 535.404C180.197 535.334 180.354 535.23 180.485 535.099C180.616 534.967 180.72 534.811 180.79 534.639C180.86 534.467 180.895 534.282 180.893 534.097V529.653C180.895 529.467 180.86 529.281 180.79 529.108C180.721 528.935 180.617 528.778 180.486 528.645C180.355 528.513 180.199 528.407 180.026 528.335C179.854 528.264 179.669 528.227 179.483 528.227Z" stroke="#263238" stroke-width="1.63971" stroke-miterlimit="10"/>
<path d="M126.426 535.506H160.466" stroke="#263238" stroke-width="1.63971" stroke-linecap="round" stroke-linejoin="round"/>
<path d="M166.875 535.506H171.992" stroke="#263238" stroke-width="1.63971" stroke-linecap="round" stroke-linejoin="round"/>
<path d="M539.863 346.814L533.304 382.462L479.816 414.961L487.212 428.538C487.212 428.538 549.045 409.681 550.553 405.27C552.062 400.859 566.311 354.144 566.311 354.144L539.863 346.814Z" fill="#263238"/>
<path d="M563.294 286.539L559.719 329.762L557.834 352.439C547.52 357.456 537.436 349.914 536.812 349.422C539.616 341.191 542.879 294.738 563.294 286.539Z" fill="#999999" stroke="#263238" stroke-width="1.63971" stroke-linecap="round" stroke-linejoin="round"/>
<path d="M559.653 329.762L557.767 352.439C547.453 357.457 537.369 349.914 536.746 349.422C537.189 349.619 542.616 351.914 546.142 349.422C544.908 348.091 543.81 346.641 542.862 345.093C542.649 344.241 546.142 344.011 546.142 344.011C546.142 344.011 543.846 325.63 549.962 317.776C552.356 314.791 556.095 321.022 559.653 329.762Z" fill="#263238"/>
<path d="M600.333 686.809L601.973 691.629C599.488 695.731 596.704 699.644 593.643 703.337C593.643 703.337 592.003 702.812 589.314 705.19C587.658 706.842 586.636 709.025 586.428 711.355C586.428 711.355 573.901 726.375 558.012 726.588C542.123 726.801 546.911 718.799 546.911 718.799L600.333 686.809Z" fill="#E5CC86" stroke="#263238" stroke-width="1.63971" stroke-linecap="round" stroke-linejoin="round"/>
<path d="M585.396 648.585C585.396 648.585 564.079 640.73 559.915 656.439C559.915 656.439 563.719 673.738 561.439 683.199C559.16 692.66 547.682 710.73 546.977 714.157C545.583 720.879 546.633 721.339 546.633 721.339C546.633 721.339 554.979 726.159 566.195 720.994C577.41 715.829 596.824 693.595 599.858 689.02C602.891 684.445 590.348 666.408 590.348 666.408L585.396 648.585Z" fill="white"/>
<mask id="mask0_521_3506" style="mask-type:luminance" maskUnits="userSpaceOnUse" x="546" y="646" width="55" height="78">
<path d="M585.396 648.592C585.396 648.592 564.079 640.738 559.915 656.447C559.915 656.447 563.719 673.746 561.439 683.207C559.16 692.668 547.682 710.737 546.977 714.164C545.583 720.887 546.633 721.346 546.633 721.346C546.633 721.346 554.979 726.167 566.195 721.002C577.41 715.837 596.824 693.602 599.858 689.028C602.891 684.453 590.348 666.416 590.348 666.416L585.396 648.592Z" fill="white"/>
</mask>
<g mask="url(#mask0_521_3506)">
<path opacity="0.4" d="M585.396 648.592C585.396 648.592 564.079 640.738 559.915 656.447C559.915 656.447 563.719 673.746 561.439 683.207C559.16 692.668 547.682 710.737 546.977 714.164C545.583 720.887 546.633 721.346 546.633 721.346C546.633 721.346 554.979 726.167 566.195 721.002C577.41 715.837 596.824 693.602 599.858 689.028C602.891 684.453 590.348 666.416 590.348 666.416L585.396 648.592Z" fill="#E5CC86"/>
</g>
<path d="M585.396 648.585C585.396 648.585 564.079 640.73 559.915 656.439C559.915 656.439 563.719 673.738 561.439 683.199C559.16 692.66 547.682 710.73 546.977 714.157C545.583 720.879 546.633 721.339 546.633 721.339C546.633 721.339 554.979 726.159 566.195 720.994C577.41 715.829 596.824 693.595 599.858 689.02C602.891 684.445 590.348 666.408 590.348 666.408L585.396 648.585Z" stroke="#263238" stroke-width="1.63971" stroke-linecap="round" stroke-linejoin="round"/>
<path d="M574.493 670.801C576.348 681.383 574.464 692.282 569.164 701.627" stroke="#263238" stroke-width="1.63971" stroke-linecap="round" stroke-linejoin="round"/>
<path d="M569.164 705.761C568.371 707.758 567.14 709.551 565.562 711.01C563.985 712.468 562.1 713.555 560.047 714.189C555.75 715.339 551.227 715.339 546.93 714.189L552.046 703.826C557.476 705.99 563.388 706.658 569.164 705.761Z" fill="#E5CC86" stroke="#263238" stroke-width="1.63971" stroke-linecap="round" stroke-linejoin="round"/>
<path d="M572.178 699.483C572.178 699.483 561.028 700.156 555.207 697.844" stroke="#263238" stroke-width="1.63971" stroke-linecap="round" stroke-linejoin="round"/>
<path d="M574.246 693.331C574.246 693.331 563.817 694.971 557.996 691.691" stroke="#263238" stroke-width="1.63971" stroke-linecap="round" stroke-linejoin="round"/>
<path d="M576.02 686.496C576.02 686.496 566.887 687.824 560.918 685.004" stroke="#263238" stroke-width="1.63971" stroke-linecap="round" stroke-linejoin="round"/>
<path d="M577.037 678.758C577.037 678.758 566.871 681.939 562.066 678.758" stroke="#263238" stroke-width="1.63971" stroke-linecap="round" stroke-linejoin="round"/>
<path d="M578.558 659.637L580.329 670.804C580.329 670.804 566.883 679.658 557.996 668.59V656.932C557.996 656.932 561.341 664.769 578.558 659.637Z" fill="#E5CC86" stroke="#263238" stroke-width="1.63971" stroke-linecap="round" stroke-linejoin="round"/>
<path d="M566.886 408.975C553.26 452.148 510.972 521.393 515.252 539.118C517.597 548.793 531.551 603.608 542.471 627.663C546.62 636.861 555.589 643.01 555.589 643.01L562.066 656.899C577.856 663.769 583.513 649.799 583.513 649.799L580.332 634.057C588.793 618.677 585.251 618.677 574.249 538.954C572.953 529.559 594.745 500.52 594.745 500.52L605.928 573.585L607.748 633.434L613.552 651.93C613.552 651.93 614.995 669.295 614.864 670.344H640.821L643.641 651.258C643.641 651.258 655.693 639.895 655.693 626.777C655.693 613.659 653.102 546.841 655.693 527.378C658.284 507.915 649.626 417.173 649.626 417.173L566.886 408.975Z" fill="#263238"/>
<path d="M390.43 370.508L426.504 373.755C427.321 373.828 428.076 374.223 428.602 374.854C429.128 375.484 429.383 376.297 429.309 377.115L426.992 402.858L384.753 399.057L387.07 373.313C387.144 372.496 387.539 371.741 388.169 371.215C388.799 370.689 389.613 370.434 390.43 370.508Z" fill="#E5CC86"/>
<mask id="mask1_521_3506" style="mask-type:luminance" maskUnits="userSpaceOnUse" x="384" y="370" width="46" height="33">
<path d="M390.43 370.506L426.504 373.753C427.321 373.826 428.076 374.221 428.602 374.852C429.128 375.482 429.383 376.295 429.309 377.113L426.992 402.856L384.753 399.055L387.07 373.311C387.144 372.494 387.539 371.739 388.169 371.213C388.799 370.687 389.613 370.432 390.43 370.506Z" fill="white"/>
</mask>
<g mask="url(#mask1_521_3506)">
<path opacity="0.3" d="M390.43 370.506L426.504 373.753C427.321 373.826 428.076 374.221 428.602 374.852C429.128 375.482 429.383 376.295 429.309 377.113L426.992 402.856L384.753 399.055L387.07 373.311C387.144 372.494 387.539 371.739 388.169 371.213C388.799 370.687 389.613 370.432 390.43 370.506Z" fill="black" fill-opacity="0.7"/>
<path opacity="0.3" d="M427.068 373.308L416.727 372.42L414.95 393.102L425.291 393.991L427.068 373.308Z" fill="white"/>
</g>
<path d="M390.43 370.508L426.504 373.755C427.321 373.828 428.076 374.223 428.602 374.854C429.128 375.484 429.383 376.297 429.309 377.115L426.992 402.858L384.753 399.057L387.07 373.313C387.144 372.496 387.539 371.741 388.169 371.215C388.799 370.689 389.613 370.434 390.43 370.508Z" stroke="#263238" stroke-width="1.64634" stroke-linecap="round" stroke-linejoin="round"/>
<path d="M452.692 372.785L488.634 375.873C489.448 375.943 490.202 376.334 490.728 376.959C491.255 377.585 491.511 378.394 491.441 379.208L489.238 404.857L447.154 401.242L449.357 375.593C449.427 374.778 449.818 374.025 450.443 373.498C451.069 372.972 451.878 372.715 452.692 372.785Z" fill="#E5CC86"/>
<mask id="mask2_521_3506" style="mask-type:luminance" maskUnits="userSpaceOnUse" x="447" y="372" width="45" height="33">
<path d="M452.689 372.785L488.63 375.873C489.444 375.943 490.198 376.334 490.724 376.959C491.251 377.585 491.507 378.394 491.437 379.208L489.234 404.857L447.15 401.242L449.353 375.593C449.423 374.778 449.814 374.025 450.44 373.498C451.065 372.972 451.874 372.715 452.689 372.785Z" fill="white"/>
</mask>
<g mask="url(#mask2_521_3506)">
<path opacity="0.3" d="M452.689 372.785L488.63 375.873C489.444 375.943 490.198 376.334 490.724 376.959C491.251 377.585 491.507 378.394 491.437 379.208L489.234 404.857L447.15 401.242L449.353 375.593C449.423 374.778 449.814 374.025 450.44 373.498C451.065 372.972 451.874 372.715 452.689 372.785Z" fill="black" fill-opacity="0.7"/>
<path opacity="0.3" d="M488.436 378.587L482.195 378.051L480.419 398.733L486.659 399.269L488.436 378.587Z" fill="white"/>
</g>
<path d="M452.692 372.785L488.634 375.873C489.448 375.943 490.202 376.334 490.728 376.959C491.255 377.585 491.511 378.394 491.441 379.208L489.238 404.857L447.154 401.242L449.357 375.593C449.427 374.778 449.818 374.025 450.443 373.498C451.069 372.972 451.878 372.715 452.692 372.785Z" stroke="#263238" stroke-width="1.63971" stroke-linecap="round" stroke-linejoin="round"/>
<path d="M439.634 371.654L475.575 374.742C476.39 374.812 477.143 375.203 477.67 375.828C478.196 376.454 478.453 377.263 478.383 378.077L476.179 403.726L434.095 400.111L436.299 374.462C436.369 373.647 436.759 372.894 437.385 372.367C438.01 371.841 438.819 371.584 439.634 371.654Z" fill="#E5CC86" stroke="#263238" stroke-width="1.63971" stroke-linecap="round" stroke-linejoin="round"/>
<path d="M501.704 376.998L537.645 380.086C538.46 380.156 539.213 380.546 539.74 381.172C540.266 381.797 540.523 382.606 540.453 383.421L538.251 409.054L496.167 405.438L498.37 379.789C498.444 378.978 498.837 378.229 499.461 377.706C500.086 377.183 500.892 376.928 501.704 376.998Z" fill="#E5CC86" stroke="#263238" stroke-width="1.63971" stroke-linecap="round" stroke-linejoin="round"/>
<path opacity="0.3" d="M476.08 377.519L465.738 376.631L463.962 397.313L474.303 398.202L476.08 377.519Z" fill="white"/>
<path opacity="0.3" d="M537.466 382.785L527.125 381.896L525.348 402.579L535.69 403.467L537.466 382.785Z" fill="white"/>
<path d="M557.043 404.696L546.893 522.64L356.867 506.243L367.017 388.315C367.1 387.339 367.374 386.389 367.824 385.519C368.275 384.649 368.892 383.877 369.642 383.246C370.391 382.616 371.258 382.139 372.192 381.844C373.126 381.549 374.109 381.441 375.084 381.526L550.238 396.579C551.22 396.659 552.176 396.934 553.051 397.386C553.926 397.839 554.703 398.461 555.336 399.216C555.969 399.971 556.446 400.844 556.739 401.785C557.032 402.725 557.135 403.715 557.043 404.696Z" fill="#E5CC86"/>
<mask id="mask3_521_3506" style="mask-type:luminance" maskUnits="userSpaceOnUse" x="356" y="381" width="202" height="142">
<path d="M557.039 404.696L546.889 522.64L356.863 506.243L367.013 388.315C367.096 387.339 367.37 386.389 367.82 385.519C368.271 384.649 368.888 383.877 369.638 383.246C370.387 382.616 371.254 382.139 372.188 381.844C373.122 381.549 374.105 381.441 375.08 381.526L550.234 396.579C551.216 396.659 552.172 396.934 553.047 397.386C553.923 397.839 554.699 398.461 555.332 399.216C555.965 399.971 556.442 400.844 556.735 401.785C557.028 402.725 557.131 403.715 557.039 404.696Z" fill="white"/>
</mask>
<g mask="url(#mask3_521_3506)">
<path opacity="0.3" d="M557.039 404.696L546.889 522.64L356.863 506.243L367.013 388.315C367.096 387.339 367.37 386.389 367.82 385.519C368.271 384.649 368.888 383.877 369.638 383.246C370.387 382.616 371.254 382.139 372.188 381.844C373.122 381.549 374.105 381.441 375.08 381.526L550.234 396.579C551.216 396.659 552.172 396.934 553.047 397.386C553.923 397.839 554.699 398.461 555.332 399.216C555.965 399.971 556.442 400.844 556.735 401.785C557.028 402.725 557.131 403.715 557.039 404.696Z" fill="black" fill-opacity="0.7"/>
</g>
<path d="M557.043 404.696L546.893 522.64L356.867 506.243L367.017 388.315C367.1 387.339 367.374 386.389 367.824 385.519C368.275 384.649 368.892 383.877 369.642 383.246C370.391 382.616 371.258 382.139 372.192 381.844C373.126 381.549 374.109 381.441 375.084 381.526L550.238 396.579C551.22 396.659 552.176 396.934 553.051 397.386C553.926 397.839 554.703 398.461 555.336 399.216C555.969 399.971 556.446 400.844 556.739 401.785C557.032 402.725 557.135 403.715 557.043 404.696Z" stroke="#263238" stroke-width="1.63971" stroke-linecap="round" stroke-linejoin="round"/>
<path d="M557.048 404.694L546.898 522.638L405.883 510.504L416.049 392.577C416.132 391.601 416.406 390.65 416.856 389.781C417.307 388.911 417.924 388.139 418.674 387.508C419.423 386.877 420.29 386.401 421.224 386.106C422.158 385.811 423.141 385.703 424.116 385.788L550.259 396.627C551.235 396.709 552.185 396.984 553.055 397.434C553.925 397.884 554.697 398.502 555.328 399.251C555.958 400.001 556.435 400.867 556.73 401.801C557.025 402.735 557.133 403.718 557.048 404.694Z" fill="#E5CC86" stroke="#263238" stroke-width="1.63971" stroke-linecap="round" stroke-linejoin="round"/>
<path opacity="0.3" d="M547.143 408.071L426.608 397.708C425.804 397.637 425.061 397.253 424.537 396.64C424.012 396.027 423.749 395.233 423.804 394.428C423.875 393.625 424.258 392.881 424.871 392.357C425.484 391.833 426.279 391.57 427.083 391.624L547.618 401.987C548.422 402.058 549.166 402.442 549.69 403.055C550.214 403.668 550.477 404.462 550.422 405.267C550.351 406.07 549.968 406.814 549.355 407.338C548.742 407.862 547.948 408.125 547.143 408.071Z" fill="white"/>
<path d="M641.669 671.017C641.669 671.017 632.585 664.54 613.794 665.835C613.794 665.835 612.416 688.381 609.859 694.94C607.301 701.499 593.822 712.862 591.313 714.813C588.805 716.765 588.805 723.569 588.805 723.569H645.899C645.167 713.811 643.648 704.127 641.357 694.612L641.669 671.017Z" fill="white"/>
<mask id="mask4_521_3506" style="mask-type:luminance" maskUnits="userSpaceOnUse" x="588" y="665" width="58" height="59">
<path d="M641.665 671.017C641.665 671.017 632.581 664.54 613.79 665.835C613.79 665.835 612.413 688.381 609.855 694.94C607.297 701.499 593.818 712.862 591.31 714.813C588.801 716.765 588.801 723.569 588.801 723.569H645.895C645.163 713.811 643.644 704.127 641.353 694.612L641.665 671.017Z" fill="white"/>
</mask>
<g mask="url(#mask4_521_3506)">
<path opacity="0.4" d="M641.665 671.017C641.665 671.017 632.581 664.54 613.79 665.835C613.79 665.835 612.413 688.381 609.855 694.94C607.297 701.499 593.818 712.862 591.31 714.813C588.801 716.765 588.801 723.569 588.801 723.569H645.895C645.163 713.811 643.644 704.127 641.353 694.612L641.665 671.017Z" fill="#E5CC86"/>
</g>
<path d="M641.669 671.017C641.669 671.017 632.585 664.54 613.794 665.835C613.794 665.835 612.416 688.381 609.859 694.94C607.301 701.499 593.822 712.862 591.313 714.813C588.805 716.765 588.805 723.569 588.805 723.569H645.899C645.167 713.811 643.648 704.127 641.357 694.612L641.669 671.017Z" stroke="#263238" stroke-width="1.63971" stroke-linecap="round" stroke-linejoin="round"/>
<path d="M629.885 673.934C629.885 673.934 628.54 694.692 625.31 700.169C623.585 703.178 621.455 705.937 618.98 708.367" stroke="#263238" stroke-width="1.63971" stroke-linecap="round" stroke-linejoin="round"/>
<path d="M617.402 711.24C617.402 711.24 614.532 714.815 611.351 715.29C608.17 715.766 591.363 714.815 591.363 714.815L598.217 708.879C598.217 708.879 612.155 706.534 617.402 711.24Z" fill="#E5CC86" stroke="#263238" stroke-width="1.63971" stroke-linecap="round" stroke-linejoin="round"/>
<path d="M623.337 706.369C623.337 706.369 611.17 699.384 602.496 704.729" stroke="#263238" stroke-width="1.63971" stroke-linecap="round" stroke-linejoin="round"/>
<path d="M626.274 701.632C626.274 701.632 617.78 694.991 607.762 698.631" stroke="#263238" stroke-width="1.63971" stroke-linecap="round" stroke-linejoin="round"/>
<path d="M629.877 694.398C629.877 694.398 620.727 687.281 611.086 691.807" stroke="#263238" stroke-width="1.63971" stroke-linecap="round" stroke-linejoin="round"/>
<path d="M631.125 685.365C631.125 685.365 620.024 679.396 611.957 683.922" stroke="#263238" stroke-width="1.63971" stroke-linecap="round" stroke-linejoin="round"/>
<path d="M645.886 723.57V727.784H639.328C639.328 727.784 633.703 724.505 628.358 727.784H597.564C594.31 727.773 591.098 727.052 588.152 725.669L588.792 723.57H645.886Z" fill="#E5CC86" stroke="#263238" stroke-width="1.63971" stroke-linecap="round" stroke-linejoin="round"/>
<path d="M637.7 669.689L636.241 678.888C636.241 678.888 619.106 673.329 609.645 676.937V665.623C609.645 665.623 627.239 659.457 637.7 669.689Z" fill="#E5CC86" stroke="#263238" stroke-width="1.63971" stroke-linecap="round" stroke-linejoin="round"/>
<path d="M656.229 440.507C656.229 440.507 619.811 447.64 584.082 436.063C575.947 433.471 568.164 429.88 560.913 425.372C560.913 425.372 561.011 423.077 561.077 419.322C561.372 404.663 561.29 367.786 553.567 358.653C548.648 352.897 544.795 317.316 554.289 299.328L583.328 275.979C623.533 283.833 632.027 294.474 638.668 317.43C639.898 321.628 641.046 326.236 642.325 331.319C643.718 336.861 645.03 343.633 646.276 350.995C652.31 387.659 656.229 440.507 656.229 440.507Z" fill="#999999"/>
<mask id="mask5_521_3506" style="mask-type:luminance" maskUnits="userSpaceOnUse" x="548" y="275" width="109" height="168">
<path d="M656.225 440.507C656.225 440.507 619.807 447.64 584.078 436.063C575.943 433.471 568.161 429.88 560.909 425.372C560.909 425.372 561.007 423.077 561.073 419.322C561.368 404.663 561.286 367.786 553.563 358.653C548.644 352.897 544.791 317.316 554.285 299.328L583.324 275.979C623.53 283.833 632.023 294.474 638.664 317.43C639.894 321.628 641.042 326.236 642.321 331.319C643.714 336.861 645.026 343.633 646.272 350.995C652.306 387.659 656.225 440.507 656.225 440.507Z" fill="white"/>
</mask>
<g mask="url(#mask5_521_3506)">
<path opacity="0.2" d="M646.273 350.993L629.876 424.239C629.876 424.239 606.183 430.798 584.096 436.061C575.955 433.47 568.167 429.879 560.91 425.37C560.91 425.37 561.009 423.075 561.074 419.32C580.915 409.17 609.872 394.248 609.642 393.543C609.265 392.445 609.642 354.19 609.642 354.19C609.642 354.19 635.878 348.107 638.665 317.379C639.895 321.577 641.043 326.184 642.322 331.267C643.716 336.826 645.027 343.549 646.273 350.993Z" fill="black"/>
</g>
<path d="M656.229 440.507C656.229 440.507 619.811 447.64 584.082 436.063C575.947 433.471 568.164 429.88 560.913 425.372C560.913 425.372 561.011 423.077 561.077 419.322C561.372 404.663 561.29 367.786 553.567 358.653C548.648 352.897 544.795 317.316 554.289 299.328L583.328 275.979C623.533 283.833 632.027 294.474 638.668 317.43C639.898 321.628 641.046 326.236 642.325 331.319C643.718 336.861 645.03 343.633 646.276 350.995C652.31 387.659 656.229 440.507 656.229 440.507Z" stroke="#263238" stroke-width="1.63971" stroke-linecap="round" stroke-linejoin="round"/>
<path d="M584.61 245.334C584.61 245.334 571.787 263.699 588.84 278.03C588.84 278.03 568.147 301.248 561.343 298.051C558.473 296.706 561.343 288.327 561.343 288.327L549.34 266.126L584.61 245.334Z" fill="white" stroke="#263238" stroke-width="1.63971" stroke-linecap="round" stroke-linejoin="round"/>
<path d="M580.427 254.845C584.428 237.35 582.51 211.295 557.996 213.607C540.812 215.247 528.563 224.757 533.4 247.811C535.417 257.535 537.073 271.308 545.993 283.737C548.469 287.181 574.377 274.998 572.803 265.143" fill="white"/>
<path d="M580.427 254.845C584.428 237.35 582.51 211.295 557.996 213.607C540.812 215.247 528.563 224.757 533.4 247.811C535.417 257.535 537.073 271.308 545.993 283.737C548.469 287.181 574.377 274.998 572.803 265.143" stroke="#263238" stroke-width="1.63971" stroke-linecap="round" stroke-linejoin="round"/>
<path d="M545.352 243.902C547.08 243.233 548.942 242.978 550.787 243.157C552.632 243.337 554.409 243.946 555.977 244.935" stroke="#263238" stroke-width="1.63971" stroke-linecap="round" stroke-linejoin="round"/>
<path d="M533.023 246.051C533.338 245.38 533.885 244.844 534.563 244.543C535.24 244.242 536.004 244.195 536.713 244.411" stroke="#263238" stroke-width="1.63971" stroke-linecap="round" stroke-linejoin="round"/>
<path d="M539.157 249.693C539.157 249.693 534.106 258.892 534.09 260.204C534.073 261.516 540.304 261.958 540.304 261.958" fill="white"/>
<path d="M539.157 249.693C539.157 249.693 534.106 258.892 534.09 260.204C534.073 261.516 540.304 261.958 540.304 261.958" stroke="#263238" stroke-width="1.63971" stroke-linecap="round" stroke-linejoin="round"/>
<path d="M550.014 251.562C550.014 252.563 549.571 253.383 548.948 253.416C548.325 253.448 547.8 252.628 547.767 251.628C547.734 250.628 548.21 249.808 548.833 249.791C549.456 249.775 549.981 250.595 550.014 251.562Z" fill="#263238"/>
<path d="M542.879 268.649C542.879 268.649 552.57 266.829 554.357 263.418" stroke="#263238" stroke-width="1.63971" stroke-linecap="round" stroke-linejoin="round"/>
<path d="M532.959 231.886L540.502 229.689C540.502 229.689 551.078 224.77 553.324 225.459C555.57 226.147 560.129 233.149 559.981 237.15C559.981 237.15 567.098 243.413 567.999 252.497L570.164 251.514C570.164 251.514 570.049 243.315 574.706 243.528C579.363 243.741 581.461 249.316 581.15 251.071C580.838 252.825 575.739 260.106 575.739 260.106C575.739 260.106 587.414 258.368 587.791 235.51C588.168 212.653 563.113 208.93 550.93 209.865C544.762 210.456 538.564 210.686 532.369 210.554L533.057 217.113L528.138 218.408L531.844 222.95L527.777 224.803L532.959 231.886Z" fill="#263238"/>
<path d="M575.199 481.119C575.199 481.119 604.878 488.973 612.913 511.077" stroke="white" stroke-width="1.63971" stroke-linecap="round" stroke-linejoin="round"/>
<path d="M588.79 493.01C588.79 493.01 572.753 519.721 548.207 533.593" stroke="white" stroke-width="1.63971" stroke-linecap="round" stroke-linejoin="round"/>
<path d="M566.242 643.222C566.242 643.222 575.359 641.173 577.851 637.631" stroke="white" stroke-width="1.63971" stroke-linecap="round" stroke-linejoin="round"/>
<path d="M617.012 646.62C617.012 646.62 625.932 641.996 634.819 646.62" stroke="white" stroke-width="1.63971" stroke-linecap="round" stroke-linejoin="round"/>
<path d="M645.882 522.264C645.882 522.264 630.911 561.043 623.336 564.634" stroke="white" stroke-width="1.63971" stroke-linecap="round" stroke-linejoin="round"/>
<path d="M580.328 461.529C580.738 465.743 598.365 485.272 612.909 493.012" stroke="white" stroke-width="1.63971" stroke-linecap="round" stroke-linejoin="round"/>
<path d="M595.363 445.047C597.485 450.276 597.926 456.035 596.626 461.526C595.211 466.265 595.211 471.314 596.626 476.054" stroke="white" stroke-width="1.63971" stroke-linecap="round" stroke-linejoin="round"/>
<path d="M563.297 364.41C563.297 364.41 590.893 400.123 620.556 411.847" stroke="#263238" stroke-width="1.63971" stroke-linecap="round" stroke-linejoin="round"/>
<path d="M591.855 306.676C591.855 306.676 591.757 330.96 609.269 341.913" stroke="#263238" stroke-width="1.63971" stroke-linecap="round" stroke-linejoin="round"/>
<path d="M601.714 342.109C598.008 345.749 602.042 391.431 602.042 391.431C602.042 391.431 580.512 399.859 573.773 405.287C567.034 410.714 535.109 423.176 535.109 423.176C535.109 423.176 530.19 439.934 536.322 440.508C542.455 441.082 605.961 419.438 620.489 411.846C620.489 411.846 629.95 356.096 629.884 341.912" fill="white"/>
<path d="M601.714 342.109C598.008 345.749 602.042 391.431 602.042 391.431C602.042 391.431 580.512 399.859 573.773 405.287C567.034 410.714 535.109 423.176 535.109 423.176C535.109 423.176 530.19 439.934 536.322 440.508C542.455 441.082 605.961 419.438 620.489 411.846C620.489 411.846 629.95 356.096 629.884 341.912" stroke="#263238" stroke-width="1.63971" stroke-linecap="round" stroke-linejoin="round"/>
<path d="M537.628 422.174C534.676 421.617 529.429 419.682 526.675 420.321C523.92 420.961 518.886 423.994 513.705 425.241C508.523 426.487 510.671 428.52 513.705 429.127C515.925 429.496 518.191 429.496 520.411 429.127L516.197 433.242C513.784 434.548 511.292 435.704 508.736 436.702C507.211 436.702 501.817 438.161 502.177 440.457C502.538 442.753 505.637 442.49 509.097 442.621C509.097 442.621 503.588 443.72 504.178 446.852C504.539 449 510.737 447.065 513.901 447.065C513.901 447.065 511.311 449.885 513.245 450.754C515.18 451.623 519.476 449.459 519.476 449.459C519.476 449.459 519.312 451.787 521.247 452.017C523.182 452.247 528.052 450.377 531.364 448.377C534.626 446.275 537.748 443.963 540.711 441.457C541.965 440.311 543.4 439.38 544.957 438.703" fill="white"/>
<path d="M537.628 422.174C534.676 421.617 529.429 419.682 526.675 420.321C523.92 420.961 518.886 423.994 513.705 425.241C508.523 426.487 510.671 428.52 513.705 429.127C515.925 429.496 518.191 429.496 520.411 429.127L516.197 433.242C513.784 434.548 511.292 435.704 508.736 436.702C507.211 436.702 501.817 438.161 502.177 440.457C502.538 442.753 505.637 442.49 509.097 442.621C509.097 442.621 503.588 443.72 504.178 446.852C504.539 449 510.737 447.065 513.901 447.065C513.901 447.065 511.311 449.885 513.245 450.754C515.18 451.623 519.476 449.459 519.476 449.459C519.476 449.459 519.312 451.787 521.247 452.017C523.182 452.247 528.052 450.377 531.364 448.377C534.626 446.275 537.748 443.963 540.711 441.457C541.965 440.311 543.4 439.38 544.957 438.703" stroke="#263238" stroke-width="1.63971" stroke-linecap="round" stroke-linejoin="round"/>
<path d="M509.184 442.687C510.707 442.605 512.224 442.43 513.726 442.162C515.021 441.835 516.316 441.408 516.316 441.408" stroke="#263238" stroke-width="1.63971" stroke-linecap="round" stroke-linejoin="round"/>
<path d="M513.922 447.131C515.904 446.852 517.813 446.195 519.547 445.195" stroke="#263238" stroke-width="1.63971" stroke-linecap="round" stroke-linejoin="round"/>
<path d="M519.496 449.525C520.962 449.341 522.366 448.818 523.596 448" stroke="#263238" stroke-width="1.63971" stroke-linecap="round" stroke-linejoin="round"/>
<path d="M516.724 434.49C516.724 434.49 515.543 437.196 516.724 438.704C517.905 440.213 519.331 440.344 519.544 441.984C519.757 443.623 522.578 443.623 523.594 444.689C524.611 445.755 525.382 447.805 528.628 447.969" stroke="#263238" stroke-width="1.63971" stroke-linecap="round" stroke-linejoin="round"/>
<path d="M600.334 294.734C589.168 320.002 600.334 355.059 600.334 355.059C600.334 355.059 627.356 364.242 629.849 360.29C632.341 356.338 636.899 336.957 637.67 328.004" fill="#999999"/>
<path d="M600.334 294.734C589.168 320.002 600.334 355.059 600.334 355.059C600.334 355.059 627.356 364.242 629.849 360.29C632.341 356.338 636.899 336.957 637.67 328.004" stroke="#263238" stroke-width="1.63971" stroke-linecap="round" stroke-linejoin="round"/>
<path d="M629.881 330.809C629.881 330.809 618.403 346.599 609.27 346.812" stroke="#263238" stroke-width="1.63971" stroke-linecap="round" stroke-linejoin="round"/>
<path d="M219.628 727.782C219.628 727.782 216.824 717.075 220.104 713.107C225.974 705.991 219.382 699.989 225.285 697.546L227.761 700.416C228.237 697.513 226.859 688.643 237.812 687.495C251.061 686.101 251.307 695.693 252.029 698.973L251.799 694.529C257.456 694.529 254.521 700.17 263.08 709.385C265.324 711.873 267.032 714.796 268.099 717.972C269.165 721.148 269.567 724.51 269.279 727.848L219.628 727.782Z" fill="#263238"/>
<path d="M320.616 727.783C315.287 725.405 320.173 705.302 320.173 705.302C320.173 705.302 313.007 700.498 320.173 695.464C322.944 697.812 326.305 699.359 329.891 699.937C333.477 700.515 337.153 700.102 340.522 698.743C340.522 698.743 341.916 685.298 350.36 687.019C350.36 687.019 352.524 695.546 357.46 700.416C370.824 713.534 388.09 715.173 390.976 721.47C391.845 723.372 390.795 727.717 390.795 727.717L320.616 727.783Z" fill="#263238"/>
<path d="M297.843 407.183L304.401 421.087C304.401 421.087 331.522 477.133 348.132 541.311C348.526 542.836 357.118 573.236 350.231 648.941L354.167 662.223L349.87 684.162C349.87 684.162 356.331 693.492 356.101 696.542C356.101 696.542 340.163 699.51 334.785 702.363C330.653 704.593 318.241 716.842 318.241 716.842C314.715 716.12 314.404 701.888 314.404 701.888C314.404 701.888 307.041 575.515 304.926 570.071C302.811 564.628 289.89 541.147 269.722 487.414C269.722 487.414 269.262 562.463 263.884 581.451C259.08 598.34 264.77 645.613 264.77 645.613L261.49 698.231C261.49 698.231 272.837 710.021 263.638 713.185C263.638 713.185 257.489 701.363 239.977 698.674C231.074 697.296 219.989 713.103 219.989 713.103C216.087 711.857 221.629 692 221.629 692C209.216 598.34 218.349 615.295 215.89 569.514C214.25 540.13 205.97 414.43 215.742 404.215L297.843 407.183Z" fill="#BFBFBF"/>
<mask id="mask6_521_3506" style="mask-type:luminance" maskUnits="userSpaceOnUse" x="211" y="404" width="146" height="313">
<path d="M297.843 407.183L304.401 421.087C304.401 421.087 331.522 477.133 348.132 541.311C348.526 542.836 357.118 573.236 350.231 648.941L354.167 662.223L349.87 684.162C349.87 684.162 356.331 693.492 356.101 696.542C356.101 696.542 340.163 699.51 334.785 702.363C330.653 704.593 318.241 716.842 318.241 716.842C314.715 716.12 314.404 701.888 314.404 701.888C314.404 701.888 307.041 575.515 304.926 570.071C302.811 564.628 289.89 541.147 269.722 487.414C269.722 487.414 269.262 562.463 263.884 581.451C259.08 598.34 264.77 645.613 264.77 645.613L261.49 698.231C261.49 698.231 272.837 710.021 263.638 713.185C263.638 713.185 257.489 701.363 239.977 698.674C231.074 697.296 219.989 713.103 219.989 713.103C216.087 711.857 221.629 692 221.629 692C209.216 598.34 218.349 615.295 215.89 569.514C214.25 540.13 205.97 414.43 215.742 404.215L297.843 407.183Z" fill="white"/>
</mask>
<g mask="url(#mask6_521_3506)">
<path opacity="0.2" d="M211.18 450.471C255.026 453.914 292.985 439.567 309.464 432.073C306.332 425.056 304.414 421.087 304.414 421.087L297.855 407.199L215.869 404.215C212.393 407.904 211.163 426.646 211.18 450.471Z" fill="black"/>
<path opacity="0.2" d="M270.16 488.383C290.115 541.427 302.954 564.646 305.02 570.057C306.217 573.205 309.152 616.116 311.448 652.124C314.072 619.33 316.777 584.781 317.007 578.009C317.499 564.498 307.742 545.986 306.283 541.198C304.824 536.41 308.119 531.228 308.119 531.228L290.575 509.092C291.165 501.582 281.868 468.805 281.868 468.805C276.342 474.035 271.423 485.169 270.16 488.383Z" fill="black"/>
</g>
<path d="M297.843 407.183L304.401 421.087C304.401 421.087 331.522 477.133 348.132 541.311C348.526 542.836 357.118 573.236 350.231 648.941L354.167 662.223L349.87 684.162C349.87 684.162 356.331 693.492 356.101 696.542C356.101 696.542 340.163 699.51 334.785 702.363C330.653 704.593 318.241 716.842 318.241 716.842C314.715 716.12 314.404 701.888 314.404 701.888C314.404 701.888 307.041 575.515 304.926 570.071C302.811 564.628 289.89 541.147 269.722 487.414C269.722 487.414 269.262 562.463 263.884 581.451C259.08 598.34 264.77 645.613 264.77 645.613L261.49 698.231C261.49 698.231 272.837 710.021 263.638 713.185C263.638 713.185 257.489 701.363 239.977 698.674C231.074 697.296 219.989 713.103 219.989 713.103C216.087 711.857 221.629 692 221.629 692C209.216 598.34 218.349 615.295 215.89 569.514C214.25 540.13 205.97 414.43 215.742 404.215L297.843 407.183Z" stroke="#263238" stroke-width="1.63971" stroke-linecap="round" stroke-linejoin="round"/>
<path d="M269.785 487.414C269.785 487.414 279.804 468.082 288.347 462.688" stroke="#263238" stroke-width="1.63971" stroke-linecap="round" stroke-linejoin="round"/>
<path d="M292.118 456.424C292.118 456.424 261.685 465.688 251.125 467.475" stroke="#263238" stroke-width="1.63971" stroke-linecap="round" stroke-linejoin="round"/>
<path d="M276.543 425.367C277.855 450.701 286.791 455.013 278.183 460.539C278.183 460.539 278.429 472.394 274.133 479.904" stroke="#263238" stroke-width="1.63971" stroke-linecap="round" stroke-linejoin="round"/>
<path d="M223.22 415.676C223.22 415.676 226.81 454.619 214.824 461.948" stroke="#263238" stroke-width="1.63971" stroke-linecap="round" stroke-linejoin="round"/>
<path d="M214.823 428.238C214.823 428.238 213.921 454.162 214.823 475.052C214.823 475.052 217.823 563.35 220.824 574.435C223.825 585.519 216.2 602.31 216.856 650.222" stroke="#263238" stroke-width="1.63971" stroke-linecap="round" stroke-linejoin="round"/>
<path d="M243.551 687.72C240.713 687.103 237.749 687.497 235.172 688.835" stroke="#263238" stroke-width="1.63971" stroke-linecap="round" stroke-linejoin="round"/>
<path d="M261.591 698.235C257.831 694.575 253.472 691.586 248.703 689.396" stroke="#263238" stroke-width="1.63971" stroke-linecap="round" stroke-linejoin="round"/>
<path d="M256.669 493.529C249.946 501.072 239.288 515.288 228.367 516.485" stroke="#263238" stroke-width="1.63971" stroke-linecap="round" stroke-linejoin="round"/>
<path d="M266.948 481.264C264.882 483.871 262.75 486.429 260.586 488.97" stroke="#263238" stroke-width="1.63971" stroke-linecap="round" stroke-linejoin="round"/>
<path d="M257.372 569.512C257.372 569.512 242.09 590.32 233.711 591.517" stroke="#263238" stroke-width="1.63971" stroke-linecap="round" stroke-linejoin="round"/>
<path d="M275.344 483.658C275.344 483.658 302.563 559.462 312.024 566.939C312.024 566.939 313.09 622.689 313.401 642.153C313.713 661.616 318.189 687.49 318.189 687.49" stroke="#263238" stroke-width="1.63971" stroke-linecap="round" stroke-linejoin="round"/>
<path d="M347.241 686.934C347.241 686.934 336.764 690.557 331.664 692.869C328.533 694.398 326.079 697.032 324.777 700.264" stroke="#263238" stroke-width="1.63971" stroke-linecap="round" stroke-linejoin="round"/>
<path d="M320.735 539.605C306.125 530.439 286.858 518.977 279.086 502.826" stroke="#263238" stroke-width="1.63971" stroke-linecap="round" stroke-linejoin="round"/>
<path d="M333.472 547.167C330.701 545.642 327.979 544.052 325.273 542.412" stroke="#263238" stroke-width="1.63971" stroke-linecap="round" stroke-linejoin="round"/>
<path d="M287.431 435.615C279.577 435.5 271.034 434.467 264.262 430.023" stroke="#263238" stroke-width="1.63971" stroke-linecap="round" stroke-linejoin="round"/>
<path d="M299.905 434.881C297.658 435.192 295.396 435.389 293.133 435.504" stroke="#263238" stroke-width="1.63971" stroke-linecap="round" stroke-linejoin="round"/>
<path d="M314.484 260.808C308.483 251.724 277.903 249.412 258.275 249.412C238.648 249.412 214.823 246.132 204.066 268.268C195.868 285.174 214.757 374.571 214.757 374.571L210.133 413.169C245.682 424.319 306.581 421.86 306.581 421.86L298.383 386.967C298.383 386.967 320.486 269.875 314.484 260.808Z" fill="#263238"/>
<path d="M246.62 226.965C246.62 226.965 249.26 248.002 241.258 252.544C241.258 252.544 245.259 267.974 259.295 268.941C273.331 269.909 279.529 254.84 279.529 254.84L246.62 226.965Z" fill="white" stroke="#263238" stroke-width="1.63971" stroke-linecap="round" stroke-linejoin="round"/>
<path d="M321.004 172.947L356.925 169.634C357.74 169.559 358.55 169.81 359.179 170.333C359.808 170.856 360.203 171.607 360.278 172.421L362.643 198.055L320.648 201.929L318.283 176.294C318.209 175.491 318.452 174.691 318.961 174.066C319.47 173.44 320.203 173.039 321.004 172.947Z" fill="#E5CC86"/>
<mask id="mask7_521_3506" style="mask-type:luminance" maskUnits="userSpaceOnUse" x="318" y="169" width="45" height="33">
<path d="M321 172.951L356.922 169.638C357.736 169.563 358.546 169.814 359.175 170.337C359.804 170.859 360.199 171.61 360.274 172.425L362.639 198.059L320.644 201.933L318.279 176.298C318.205 175.495 318.448 174.695 318.957 174.07C319.466 173.444 320.199 173.043 321 172.951Z" fill="white"/>
</mask>
<g mask="url(#mask7_521_3506)">
<path opacity="0.3" d="M321 172.951L356.922 169.638C357.736 169.563 358.546 169.814 359.175 170.337C359.804 170.859 360.199 171.61 360.274 172.425L362.639 198.059L320.644 201.933L318.279 176.298C318.205 175.495 318.448 174.695 318.957 174.07C319.466 173.444 320.199 173.043 321 172.951Z" fill="black" fill-opacity="0.7"/>
<path opacity="0.3" d="M357.968 172.23L347.633 173.184L349.539 193.855L359.875 192.901L357.968 172.23Z" fill="white"/>
</g>
<path d="M321.004 172.947L356.925 169.634C357.74 169.559 358.55 169.81 359.179 170.333C359.808 170.856 360.203 171.607 360.278 172.421L362.643 198.055L320.648 201.929L318.283 176.294C318.209 175.491 318.452 174.691 318.961 174.066C319.47 173.44 320.203 173.039 321.004 172.947Z" stroke="#263238" stroke-width="1.63971" stroke-linecap="round" stroke-linejoin="round"/>
<path d="M383.105 167.186L419.026 163.872C419.84 163.797 420.651 164.049 421.279 164.571C421.908 165.094 422.304 165.845 422.379 166.659L424.743 192.293L382.683 196.173L380.318 170.538C380.243 169.724 380.495 168.914 381.017 168.285C381.54 167.656 382.291 167.261 383.105 167.186Z" fill="#E5CC86"/>
<mask id="mask8_521_3506" style="mask-type:luminance" maskUnits="userSpaceOnUse" x="380" y="163" width="45" height="34">
<path d="M383.105 167.184L419.026 163.87C419.84 163.795 420.651 164.047 421.279 164.569C421.908 165.092 422.304 165.843 422.379 166.657L424.743 192.291L382.683 196.171L380.318 170.536C380.243 169.722 380.495 168.912 381.017 168.283C381.54 167.654 382.291 167.259 383.105 167.184Z" fill="white"/>
</mask>
<g mask="url(#mask8_521_3506)">
<path opacity="0.3" d="M383.105 167.184L419.026 163.87C419.84 163.795 420.651 164.047 421.279 164.569C421.908 165.092 422.304 165.843 422.379 166.657L424.743 192.291L382.683 196.171L380.318 170.536C380.243 169.722 380.495 168.912 381.017 168.283C381.54 167.654 382.291 167.259 383.105 167.184Z" fill="black" fill-opacity="0.7"/>
<path opacity="0.3" d="M419.327 166.587L413.09 167.162L414.997 187.833L421.234 187.258L419.327 166.587Z" fill="white"/>
</g>
<path d="M383.105 167.186L419.026 163.872C419.84 163.797 420.651 164.049 421.279 164.571C421.908 165.094 422.304 165.845 422.379 166.659L424.743 192.293L382.683 196.173L380.318 170.538C380.243 169.724 380.495 168.914 381.017 168.285C381.54 167.656 382.291 167.261 383.105 167.186Z" stroke="#263238" stroke-width="1.63971" stroke-linecap="round" stroke-linejoin="round"/>
<path d="M370.057 168.381L405.978 165.068C406.792 164.993 407.603 165.244 408.231 165.767C408.86 166.29 409.256 167.04 409.331 167.855L411.695 193.489L369.57 197.375L367.205 171.74C367.167 171.332 367.211 170.919 367.335 170.528C367.459 170.137 367.659 169.774 367.925 169.461C368.19 169.148 368.516 168.892 368.882 168.706C369.248 168.521 369.647 168.41 370.057 168.381Z" fill="#E5CC86" stroke="#263238" stroke-width="1.63971" stroke-linecap="round" stroke-linejoin="round"/>
<path d="M432.105 162.652L468.026 159.339C468.84 159.264 469.651 159.515 470.279 160.038C470.908 160.561 471.304 161.311 471.379 162.126L473.743 187.76L431.683 191.64L429.318 166.005C429.243 165.191 429.495 164.38 430.017 163.752C430.54 163.123 431.291 162.728 432.105 162.652Z" fill="#E5CC86" stroke="#263238" stroke-width="1.63971" stroke-linecap="round" stroke-linejoin="round"/>
<path opacity="0.3" d="M406.964 167.717L396.629 168.67L398.536 189.341L408.871 188.388L406.964 167.717Z" fill="white"/>
<path opacity="0.3" d="M468.328 162.039L457.992 162.992L459.899 183.663L470.234 182.71L468.328 162.039Z" fill="white"/>
<path d="M491.489 180.1L502.377 297.962L312.416 315.507L301.594 197.612C301.412 195.642 302.019 193.68 303.283 192.158C304.547 190.636 306.364 189.678 308.334 189.495L483.389 173.344C484.365 173.254 485.349 173.357 486.284 173.648C487.22 173.939 488.089 174.412 488.842 175.04C489.594 175.667 490.216 176.438 490.67 177.306C491.124 178.174 491.403 179.124 491.489 180.1Z" fill="#E5CC86"/>
<mask id="mask9_521_3506" style="mask-type:luminance" maskUnits="userSpaceOnUse" x="301" y="173" width="202" height="143">
<path d="M491.489 180.102L502.377 297.964L312.416 315.509L301.594 197.614C301.412 195.644 302.019 193.682 303.283 192.16C304.547 190.638 306.364 189.68 308.334 189.497L483.389 173.346C484.365 173.256 485.349 173.359 486.284 173.65C487.22 173.941 488.089 174.414 488.842 175.042C489.594 175.669 490.216 176.439 490.67 177.308C491.124 178.176 491.403 179.126 491.489 180.102Z" fill="white"/>
</mask>
<g mask="url(#mask9_521_3506)">
<path opacity="0.3" d="M491.489 180.102L502.377 297.964L312.416 315.509L301.594 197.614C301.412 195.644 302.019 193.682 303.283 192.16C304.547 190.638 306.364 189.68 308.334 189.497L483.389 173.346C484.365 173.256 485.349 173.359 486.284 173.65C487.22 173.941 488.089 174.414 488.842 175.042C489.594 175.669 490.216 176.439 490.67 177.308C491.124 178.176 491.403 179.126 491.489 180.102Z" fill="black" fill-opacity="0.7"/>
</g>
<path d="M491.489 180.1L502.377 297.962L312.416 315.507L301.594 197.612C301.412 195.642 302.019 193.68 303.283 192.158C304.547 190.636 306.364 189.678 308.334 189.495L483.389 173.344C484.365 173.254 485.349 173.357 486.284 173.648C487.22 173.939 488.089 174.412 488.842 175.04C489.594 175.667 490.216 176.438 490.67 177.306C491.124 178.174 491.403 179.124 491.489 180.1Z" stroke="#263238" stroke-width="1.63971" stroke-linecap="round" stroke-linejoin="round"/>
<path d="M491.495 180.1L502.383 297.962L361.368 310.965L350.497 193.103C350.314 191.133 350.922 189.171 352.186 187.649C353.449 186.127 355.266 185.169 357.236 184.986L483.313 173.344C484.295 173.243 485.288 173.337 486.233 173.623C487.179 173.909 488.057 174.38 488.819 175.008C489.58 175.637 490.209 176.411 490.669 177.285C491.128 178.159 491.409 179.116 491.495 180.1Z" fill="#E5CC86" stroke="#263238" stroke-width="1.63971" stroke-linecap="round" stroke-linejoin="round"/>
<path opacity="0.3" d="M482.359 185.168L361.889 196.285C361.087 196.34 360.295 196.079 359.683 195.558C359.07 195.038 358.685 194.298 358.61 193.498C358.551 192.697 358.808 191.905 359.326 191.292C359.844 190.679 360.582 190.293 361.381 190.218L481.85 179.101C482.653 179.046 483.445 179.307 484.057 179.828C484.67 180.348 485.055 181.088 485.13 181.888C485.181 182.687 484.921 183.474 484.404 184.086C483.888 184.697 483.155 185.085 482.359 185.168Z" fill="white"/>
<path d="M270.669 185.248C270.669 185.248 242.876 179.673 239.761 197.562C236.645 215.451 246.828 223.059 246.828 223.059L270.669 185.248Z" fill="#263238"/>
<path d="M246.834 232.883C243.658 223.99 243.162 214.361 245.407 205.189C248.129 193.711 261.804 177.92 282.546 192.268C293.221 199.663 293.877 215.715 290.548 230.407C289.761 233.916 290.351 237.343 289.187 240.573C285.088 251.887 277.594 260.594 273.495 260.791C266.658 261.135 252.982 252.855 253.54 245.64" fill="white"/>
<path d="M246.834 232.883C243.658 223.99 243.162 214.361 245.407 205.189C248.129 193.711 261.804 177.92 282.546 192.268C293.221 199.663 293.877 215.715 290.548 230.407C289.761 233.916 290.351 237.343 289.187 240.573C285.088 251.887 277.594 260.594 273.495 260.791C266.658 261.135 252.982 252.855 253.54 245.64" stroke="#263238" stroke-width="1.63971" stroke-linecap="round" stroke-linejoin="round"/>
<path d="M274.526 227.687C274.526 227.687 269 223.686 263.688 226.965" stroke="#263238" stroke-width="1.63971" stroke-linecap="round" stroke-linejoin="round"/>
<path d="M284.953 226.964C284.953 226.964 289.134 223.127 291.856 223.684" stroke="#263238" stroke-width="1.63971" stroke-linecap="round" stroke-linejoin="round"/>
<path d="M266.723 233.815C266.723 234.832 267.231 235.669 267.871 235.669C268.51 235.669 269.035 234.832 269.035 233.815C269.035 232.799 268.51 231.979 267.871 231.979C267.231 231.979 266.723 232.799 266.723 233.815Z" fill="#263238"/>
<path d="M284.953 234.636C285.597 234.636 286.118 233.814 286.118 232.8C286.118 231.785 285.597 230.963 284.953 230.963C284.31 230.963 283.789 231.785 283.789 232.8C283.789 233.814 284.31 234.636 284.953 234.636Z" fill="#263238"/>
<path d="M282.605 230.834C280.572 233.49 283.425 243.607 282.605 244.329C281.785 245.05 276.571 243.001 276.571 243.001C276.571 243.001 275.357 241.459 277.899 240.639" stroke="#263238" stroke-width="1.63971" stroke-linecap="round" stroke-linejoin="round"/>
<path d="M277.984 249.413C277.984 249.413 270.983 249.413 269.113 246.855" stroke="#263238" stroke-width="1.63971" stroke-linecap="round" stroke-linejoin="round"/>
<path d="M261.227 211.517L260.686 219.978C260.686 219.978 254.685 223.077 253.176 226.225C252.278 228.287 251.95 230.552 252.225 232.784C252.225 232.784 248.585 226.422 246.617 226.947C245.912 227.127 245.912 229.8 245.912 229.8C245.912 229.8 237.714 211.501 245.125 201.826C252.537 192.152 261.227 211.517 261.227 211.517Z" fill="#757575" stroke="#263238" stroke-width="1.63971" stroke-linecap="round" stroke-linejoin="round"/>
<path d="M249.667 230.965C249.667 230.965 248.027 224.816 242.501 223.193C236.975 221.57 240.763 236.311 245.469 238.229C250.175 240.148 251.356 241.509 251.634 239.754" fill="white"/>
<path d="M249.667 230.965C249.667 230.965 248.027 224.816 242.501 223.193C236.975 221.57 240.763 236.311 245.469 238.229C250.175 240.148 251.356 241.509 251.634 239.754" stroke="#263238" stroke-width="1.63971" stroke-linecap="round" stroke-linejoin="round"/>
<path d="M242.141 210.455C241.682 209.832 239.649 194.058 250.061 186.974C260.473 179.891 278.067 180.645 289.266 190.45C300.465 200.256 297.284 217.26 289.266 223.064V215.964C289.266 215.964 285.577 223.081 274.509 223.671L277.887 218.457C277.887 218.457 272.443 221.736 262.85 221.457C262.85 221.457 267.36 217.866 266.704 214.669C266.72 214.669 251.487 223.245 242.141 210.455Z" fill="#263238"/>
<path d="M244.094 267.316C236.42 268.235 225.499 278.253 232.616 296.044C237.158 307.325 274.477 300.619 274.477 300.619C288.316 294.913 308.534 274.383 323.373 264.857C323.373 264.857 320.242 245.18 316.634 247.968C299.86 260.807 286.07 261.692 262.671 272.941C262.721 272.875 248.914 266.742 244.094 267.316Z" fill="white" stroke="#263238" stroke-width="1.63971" stroke-linecap="round" stroke-linejoin="round"/>
<path d="M261.231 289.156C261.001 296.502 264.018 297.798 269.102 299.536L261.231 289.156Z" fill="white"/>
<path d="M261.231 289.156C261.001 296.502 264.018 297.798 269.102 299.536" stroke="#263238" stroke-width="1.63971" stroke-linecap="round" stroke-linejoin="round"/>
<path d="M315.52 249.411C315.864 248.345 322.078 237.424 323.833 234.653C325.587 231.882 333.425 229.373 336.459 227.701C339.492 226.028 339.738 223.487 341.378 225.307C343.017 227.127 341.378 231.276 332.294 235.686C335.522 235.865 338.757 235.865 341.984 235.686C344.411 235.326 346.576 233.128 347.658 234.653C348.74 236.178 348.953 238.917 343.542 240.589C340.969 241.522 338.273 242.074 335.54 242.229C338.188 242.794 340.791 243.551 343.329 244.492C344.198 245.131 345.493 246.623 346.789 246.853C348.084 247.082 349.494 248.492 347.117 250.132C346.274 250.598 345.329 250.851 344.366 250.868C343.403 250.885 342.45 250.666 341.591 250.231C341.591 250.231 347.871 253.264 345.92 255.15C343.968 257.035 337.721 256.658 337.721 256.658C337.721 256.658 328.457 267.956 320.619 265.595" fill="white"/>
<path d="M315.52 249.411C315.864 248.345 322.078 237.424 323.833 234.653C325.587 231.882 333.425 229.373 336.459 227.701C339.492 226.028 339.738 223.487 341.378 225.307C343.017 227.127 341.378 231.276 332.294 235.686C335.522 235.865 338.757 235.865 341.984 235.686C344.411 235.326 346.576 233.128 347.658 234.653C348.74 236.178 348.953 238.917 343.542 240.589C340.969 241.522 338.273 242.074 335.54 242.229C338.188 242.794 340.791 243.551 343.329 244.492C344.198 245.131 345.493 246.623 346.789 246.853C348.084 247.082 349.494 248.492 347.117 250.132C346.274 250.598 345.329 250.851 344.366 250.868C343.403 250.885 342.45 250.666 341.591 250.231C341.591 250.231 347.871 253.264 345.92 255.15C343.968 257.035 337.721 256.658 337.721 256.658C337.721 256.658 328.457 267.956 320.619 265.595" stroke="#263238" stroke-width="1.63971" stroke-linecap="round" stroke-linejoin="round"/>
<path d="M326.621 234.637C327.151 234.76 327.637 235.027 328.025 235.409C328.413 235.791 328.687 236.273 328.818 236.801C329.359 238.736 330.95 238.851 331.917 241.015C332.885 243.18 332.606 246.525 333.557 247.672C334.508 248.82 333.557 253.657 333.557 253.657" stroke="#263238" stroke-width="1.63971" stroke-linecap="round" stroke-linejoin="round"/>
<path d="M245.7 265.921C241.682 260.805 232.664 263.117 232.664 263.117" stroke="white" stroke-width="1.63971" stroke-linecap="round" stroke-linejoin="round"/>
<path d="M227.742 253.691C227.742 253.691 237.023 255.052 239.761 262.775" stroke="white" stroke-width="1.63971" stroke-linecap="round" stroke-linejoin="round"/>
<path d="M244.09 302.587C244.09 302.587 235.039 309.589 221.266 299.537" stroke="white" stroke-width="1.63971" stroke-linecap="round" stroke-linejoin="round"/>
<path d="M232.661 304.699C232.661 304.699 228.07 311.045 216.887 310.963" stroke="white" stroke-width="1.63971" stroke-linecap="round" stroke-linejoin="round"/>
<path d="M290.185 384.537C290.185 384.537 266.508 403.41 242.453 400.934" stroke="white" stroke-width="1.63971" stroke-linecap="round" stroke-linejoin="round"/>
<path d="M226.184 343.072C226.184 343.072 262.929 370.029 290.132 371.751" stroke="white" stroke-width="1.63971" stroke-linecap="round" stroke-linejoin="round"/>
<path d="M227.156 542.623C233.477 539.117 240.909 538.189 247.899 540.033C259.885 543.05 291.023 587.584 295.352 591.929C299.681 596.275 307.781 598.488 315.241 606.343C327.047 618.657 344.215 629.544 345.953 629.544C347.691 629.544 349.085 628.462 351.249 628.036C353.414 627.61 370.172 626.085 370.172 626.085C370.172 626.085 375.796 627.331 370.172 629.741C364.547 632.152 364.974 634.3 364.974 634.3C364.974 634.3 363.842 636.12 366.105 637.858C368.368 639.596 369.696 638.645 372.926 643.22C376.157 647.794 368.368 645.204 368.368 645.204C368.368 645.204 370.09 650.123 366.63 649.631C363.17 649.139 366.204 654.435 360.579 653.714C354.955 652.992 342.92 645.4 339.903 637.448C339.903 637.448 290.81 613.984 283.464 607.933C276.118 601.883 245.193 569.433 243.078 569.006" fill="#263238"/>
<path d="M355.594 586.568H391.668C392.486 586.568 393.27 586.893 393.848 587.471C394.426 588.049 394.751 588.833 394.751 589.651V615.394H352.512V589.651C352.512 588.833 352.837 588.049 353.415 587.471C353.993 586.893 354.777 586.568 355.594 586.568Z" fill="#E5CC86"/>
<mask id="mask10_521_3506" style="mask-type:luminance" maskUnits="userSpaceOnUse" x="352" y="586" width="43" height="30">
<path d="M355.59 586.562H391.664C392.482 586.563 393.266 586.887 393.844 587.465C394.422 588.043 394.747 588.828 394.747 589.645V615.389H352.508V589.645C352.508 588.828 352.833 588.043 353.411 587.465C353.989 586.887 354.773 586.562 355.59 586.562Z" fill="white"/>
</mask>
<g mask="url(#mask10_521_3506)">
<path opacity="0.3" d="M355.59 586.562H391.664C392.482 586.563 393.266 586.887 393.844 587.465C394.422 588.043 394.747 588.828 394.747 589.645V615.389H352.508V589.645C352.508 588.828 352.833 588.043 353.411 587.465C353.989 586.887 354.773 586.562 355.59 586.562Z" fill="black" fill-opacity="0.7"/>
<path opacity="0.3" d="M392.403 589.285H382.023V610.044H392.403V589.285Z" fill="white"/>
</g>
<path d="M355.594 586.568H391.668C392.486 586.568 393.27 586.893 393.848 587.471C394.426 588.049 394.751 588.833 394.751 589.651V615.394H352.512V589.651C352.512 588.833 352.837 588.049 353.415 587.471C353.993 586.893 354.777 586.568 355.594 586.568Z" stroke="#263238" stroke-width="1.63971" stroke-linecap="round" stroke-linejoin="round"/>
<path d="M417.903 586.568H453.977C454.794 586.568 455.578 586.893 456.156 587.471C456.734 588.049 457.059 588.833 457.059 589.651V615.394H414.82V589.651C414.82 589.246 414.9 588.845 415.055 588.471C415.21 588.097 415.437 587.757 415.723 587.471C416.009 587.185 416.349 586.958 416.723 586.803C417.097 586.648 417.498 586.568 417.903 586.568Z" fill="#E5CC86"/>
<mask id="mask11_521_3506" style="mask-type:luminance" maskUnits="userSpaceOnUse" x="414" y="586" width="44" height="30">
<path d="M417.903 586.562H453.977C454.794 586.563 455.578 586.887 456.156 587.465C456.734 588.043 457.059 588.828 457.059 589.645V615.389H414.82V589.645C414.82 589.24 414.9 588.839 415.055 588.465C415.21 588.091 415.437 587.752 415.723 587.465C416.009 587.179 416.349 586.952 416.723 586.797C417.097 586.642 417.498 586.562 417.903 586.562Z" fill="white"/>
</mask>
<g mask="url(#mask11_521_3506)">
<path opacity="0.3" d="M417.903 586.562H453.977C454.794 586.563 455.578 586.887 456.156 587.465C456.734 588.043 457.059 588.828 457.059 589.645V615.389H414.82V589.645C414.82 589.24 414.9 588.839 415.055 588.465C415.21 588.091 415.437 587.752 415.723 587.465C416.009 587.179 416.349 586.952 416.723 586.797C417.097 586.642 417.498 586.562 417.903 586.562Z" fill="black" fill-opacity="0.7"/>
<path opacity="0.3" d="M454.025 589.285H447.762V610.044H454.025V589.285Z" fill="white"/>
</g>
<path d="M417.903 586.568H453.977C454.794 586.568 455.578 586.893 456.156 587.471C456.734 588.049 457.059 588.833 457.059 589.651V615.394H414.82V589.651C414.82 589.246 414.9 588.845 415.055 588.471C415.21 588.097 415.437 587.757 415.723 587.471C416.009 587.185 416.349 586.958 416.723 586.803C417.097 586.648 417.498 586.568 417.903 586.568Z" stroke="#263238" stroke-width="1.63971" stroke-linecap="round" stroke-linejoin="round"/>
<path d="M404.786 586.568H440.859C441.677 586.568 442.461 586.893 443.039 587.471C443.617 588.049 443.942 588.833 443.942 589.651V615.394H401.703V589.651C401.703 589.246 401.783 588.845 401.938 588.471C402.093 588.097 402.32 587.757 402.606 587.471C402.892 587.185 403.232 586.958 403.606 586.803C403.98 586.648 404.381 586.568 404.786 586.568Z" fill="#E5CC86" stroke="#263238" stroke-width="1.63971" stroke-linecap="round" stroke-linejoin="round"/>
<path d="M467.09 586.568H503.164C503.982 586.568 504.766 586.893 505.344 587.471C505.922 588.049 506.247 588.833 506.247 589.651V615.394H464.008V589.651C464.008 588.833 464.333 588.049 464.911 587.471C465.489 586.893 466.273 586.568 467.09 586.568Z" fill="#E5CC86" stroke="#263238" stroke-width="1.63971" stroke-linecap="round" stroke-linejoin="round"/>
<path opacity="0.3" d="M441.594 589.291H431.215V610.05H441.594V589.291Z" fill="white"/>
<path opacity="0.3" d="M503.215 589.291H492.836V610.05H503.215V589.291Z" fill="white"/>
<path d="M524.629 609.392V727.763H333.914V609.392C333.914 607.414 334.7 605.516 336.099 604.117C337.498 602.718 339.396 601.932 341.375 601.932H517.168C519.147 601.932 521.044 602.718 522.443 604.117C523.843 605.516 524.629 607.414 524.629 609.392Z" fill="#E5CC86"/>
<mask id="mask12_521_3506" style="mask-type:luminance" maskUnits="userSpaceOnUse" x="333" y="601" width="192" height="127">
<path d="M524.629 609.394V727.765H333.914V609.394C333.914 607.416 334.7 605.518 336.099 604.119C337.498 602.72 339.396 601.934 341.375 601.934H517.168C519.147 601.934 521.044 602.72 522.443 604.119C523.843 605.518 524.629 607.416 524.629 609.394Z" fill="white"/>
</mask>
<g mask="url(#mask12_521_3506)">
<path opacity="0.3" d="M524.629 609.394V727.765H333.914V609.394C333.914 607.416 334.7 605.518 336.099 604.119C337.498 602.72 339.396 601.934 341.375 601.934H517.168C519.147 601.934 521.044 602.72 522.443 604.119C523.843 605.518 524.629 607.416 524.629 609.394Z" fill="black" fill-opacity="0.7"/>
</g>
<path d="M524.629 609.392V727.763H333.914V609.392C333.914 607.414 334.7 605.516 336.099 604.117C337.498 602.718 339.396 601.932 341.375 601.932H517.168C519.147 601.932 521.044 602.718 522.443 604.117C523.843 605.516 524.629 607.414 524.629 609.392Z" stroke="#263238" stroke-width="1.63971" stroke-linecap="round" stroke-linejoin="round"/>
<path d="M524.629 609.392V727.763H383.105V609.392C383.105 607.414 383.891 605.516 385.291 604.117C386.69 602.718 388.587 601.932 390.566 601.932H517.168C519.147 601.932 521.044 602.718 522.444 604.117C523.843 605.516 524.629 607.414 524.629 609.392Z" fill="#E5CC86" stroke="#263238" stroke-width="1.63971" stroke-linecap="round" stroke-linejoin="round"/>
<path opacity="0.3" d="M515.053 613.606H394.076C393.258 613.606 392.474 613.281 391.896 612.703C391.318 612.125 390.993 611.341 390.993 610.523C390.984 610.113 391.057 609.705 391.208 609.323C391.359 608.942 391.585 608.594 391.872 608.301C392.159 608.008 392.502 607.775 392.881 607.616C393.259 607.457 393.665 607.375 394.076 607.375H515.053C515.871 607.375 516.655 607.7 517.233 608.278C517.811 608.856 518.136 609.64 518.136 610.458C518.145 610.868 518.071 611.276 517.92 611.657C517.769 612.039 517.544 612.387 517.257 612.68C516.969 612.973 516.627 613.206 516.248 613.365C515.87 613.524 515.464 613.606 515.053 613.606Z" fill="white"/>
<path d="M291.103 727.764C281.265 727.764 267.442 721.435 251.521 714.745C235.009 707.793 216.202 700.447 197.115 699.348C189.999 698.938 194.311 727.764 194.311 727.764H178.734C178.734 727.764 163.354 707.235 161.566 688.854C161.566 688.854 174.127 681.098 177.144 680.655C178.184 680.547 179.23 680.497 180.275 680.508C183.653 680.508 188.162 680.655 188.162 680.655C187.441 680.229 175.947 673.309 169.601 666.275C164.37 660.471 161.976 651.305 161.796 645.828C161.999 642.202 162.398 638.589 162.993 635.006L244.847 636.367C244.847 636.367 245.733 636.99 247.307 638.154C256.801 645.074 291.497 670.85 308.845 690.28C314.453 696.561 318.241 702.168 318.798 706.268C321.405 725.173 305.943 727.764 291.103 727.764Z" fill="#757575" stroke="#263238" stroke-width="1.63971" stroke-linecap="round" stroke-linejoin="round"/>
<path d="M308.861 690.243L269.049 699.344C262.224 703.248 256.252 708.484 251.488 714.741C234.976 707.788 216.169 700.442 197.083 699.344C189.966 698.934 194.279 727.76 194.279 727.76H178.701C178.701 727.76 163.354 707.231 161.566 688.85C161.566 688.85 176.061 709.51 179.603 720.004C179.603 720.004 185.227 700.59 194.361 692.801C190.236 688.155 185.548 684.041 180.407 680.553C183.784 680.553 188.294 680.7 188.294 680.7C187.572 680.274 176.078 673.354 169.732 666.32C164.501 660.515 162.386 651.333 161.927 645.873C161.698 643.184 162.026 635.051 162.026 635.051C162.026 635.051 223.072 643.758 247.438 638.199C256.817 645.086 291.513 670.813 308.861 690.243Z" fill="#263238"/>
<path d="M244.863 688.854C244.863 688.854 277.297 705.103 285.954 711.465C294.612 717.827 297.186 716.105 297.186 716.105" stroke="#263238" stroke-width="1.63971" stroke-linecap="round" stroke-linejoin="round"/>
<path d="M169.617 687.131C169.617 687.131 177.406 699.019 177.816 702.577" stroke="#263238" stroke-width="1.63971" stroke-linecap="round" stroke-linejoin="round"/>
<path d="M300.07 458.952C300.07 458.952 317.336 451.442 315.697 483.383C314.057 515.325 319.911 516.965 319.911 516.965C319.911 516.965 276.458 534.805 265.423 519.555C254.388 504.306 264.866 462.576 300.07 458.952Z" fill="#263238"/>
<path d="M297.662 516.961C297.662 516.961 279.789 525.389 278.165 533.178C276.542 540.966 254.16 529.242 254.16 529.242L270.377 505.926L297.662 516.961Z" fill="white" stroke="#263238" stroke-width="1.63971" stroke-linecap="round" stroke-linejoin="round"/>
<path d="M180.475 602.457C139.482 654.665 172.752 679.851 219.222 675.686L209.908 690.443L233.29 694.493C233.29 694.493 251.212 682.786 275.644 670.275C317.227 648.959 334.034 650.238 329.754 628.905C325.475 607.573 274.513 593.733 223.419 616.214C223.37 616.197 195.626 583.239 180.475 602.457Z" fill="#757575" stroke="#263238" stroke-width="1.63971" stroke-linecap="round" stroke-linejoin="round"/>
<path d="M194.771 716.104C194.771 716.104 205.445 686.59 209.905 684.95C214.365 683.31 231.222 689.705 233.288 694.46C233.288 694.46 238.978 685.737 241.306 689.443C243.634 693.148 240.273 699.281 241.306 703.97C242.339 708.66 253.866 715.219 258.474 716.088C263.081 716.957 265.705 719.548 265.705 722.138V727.763H194.771C193.984 725.92 193.578 723.937 193.578 721.933C193.578 719.93 193.984 717.947 194.771 716.104Z" fill="white" stroke="#263238" stroke-width="1.63971" stroke-linecap="round" stroke-linejoin="round"/>
<path d="M241.307 699.348C241.307 699.348 231.912 703.988 228.485 702.627C225.058 701.266 230.239 710.416 231.535 711.285C232.83 712.154 241.373 708.251 241.373 708.251" stroke="#263238" stroke-width="1.63971" stroke-linecap="round" stroke-linejoin="round"/>
<path d="M203.641 694.473C203.641 694.473 216.398 694.719 220.284 699.392" stroke="#263238" stroke-width="1.63971" stroke-linecap="round" stroke-linejoin="round"/>
<path d="M194.77 716.105C194.77 716.105 215.102 720.861 216.824 720.861C219.62 720.306 222.363 719.51 225.022 718.483C225.022 718.483 230.597 721.287 234.303 723.025C238.009 724.763 262.178 723.025 262.178 723.025" stroke="#263238" stroke-width="1.63971" stroke-linecap="round" stroke-linejoin="round"/>
<path d="M219.219 675.718C238.633 673.62 276.346 649.696 289.464 641.383C302.582 633.07 305.861 635.25 305.861 635.25" stroke="#263238" stroke-width="1.63971" stroke-linecap="round" stroke-linejoin="round"/>
<path d="M161.91 634.972L165.009 611.442L172.486 605.802C184.604 576.402 239.501 521.488 254.472 521.668C276.952 521.931 280.92 545.526 283.691 571.352C286.462 597.177 251.438 593.291 251.438 593.291V599.768L231.516 610.081L243.584 609.704C243.584 609.704 208.871 643.45 161.91 634.972Z" fill="#E5CC86" stroke="#263238" stroke-width="1.63971" stroke-linecap="round" stroke-linejoin="round"/>
<path d="M259.211 476.199C263.917 461.441 285.446 457.506 293.186 459.917C299.539 462.397 304.745 467.148 307.795 473.247C309.763 477.494 305.647 485.004 308.583 489.382C312.78 495.662 312.419 508.911 310.911 517.257C310.091 521.684 291.677 524.308 276.625 513.978C260.457 502.795 254.652 490.399 259.211 476.199Z" fill="white" stroke="#263238" stroke-width="1.63971" stroke-linecap="round" stroke-linejoin="round"/>
<path d="M280.973 455.505C280.973 455.505 299.928 452.423 300.059 457.292C300.895 489.644 281.498 496.432 281.498 496.432C281.498 496.432 273.578 490.119 271.807 494.448C270.036 498.777 274.595 510.747 280.202 510.993C278.91 513 278.204 515.329 278.163 517.716C278.123 520.103 278.749 522.454 279.973 524.504C279.973 524.504 247.867 529.866 245.211 514.994C246.452 509.824 247.34 504.576 247.867 499.285C249.95 478.445 245.08 464.425 280.973 455.505Z" fill="#263238"/>
<path d="M306.285 488.48C310.237 492.039 313.074 492.039 313.024 493.318C312.877 497.302 308.105 499.286 308.105 499.286" fill="white"/>
<path d="M306.285 488.48C310.237 492.039 313.074 492.039 313.024 493.318C312.877 497.302 308.105 499.286 308.105 499.286" stroke="#263238" stroke-width="1.63971" stroke-linecap="round" stroke-linejoin="round"/>
<path d="M308.008 505.926C305.216 506.871 302.203 506.945 299.367 506.139" stroke="#263238" stroke-width="1.63971" stroke-linecap="round" stroke-linejoin="round"/>
<path d="M297.495 468.623C297.495 468.623 310.105 464.966 307.793 485.43C307.793 485.43 313.04 478.297 313.023 470.279C313.023 456.39 294.445 459.178 294.445 459.178L296.872 469.016" fill="#263238"/>
<path d="M308.96 478.641C308.482 478.324 307.945 478.107 307.382 478.003C306.818 477.898 306.239 477.909 305.68 478.035" stroke="#263238" stroke-width="1.63971" stroke-linecap="round" stroke-linejoin="round"/>
<path d="M300.465 478.412C300.465 478.412 293.693 478.806 290.758 483.331" stroke="#263238" stroke-width="1.63971" stroke-linecap="round" stroke-linejoin="round"/>
<path d="M298.84 489.185C298.938 490.267 298.479 491.202 297.806 491.268C297.134 491.333 296.511 490.497 296.396 489.415C296.281 488.332 296.757 487.397 297.429 487.332C298.102 487.266 298.741 488.103 298.84 489.185Z" fill="#263238"/>
<path d="M220.285 680.635C220.285 680.635 235.37 682.274 238.65 688.833" stroke="#263238" stroke-width="1.63971" stroke-linecap="round" stroke-linejoin="round"/>
<path d="M258.473 532.735C264.794 529.228 272.226 528.3 279.215 530.144C291.218 533.177 322.339 577.696 326.668 582.041C330.997 586.386 339.097 588.6 346.558 596.454C358.364 608.768 375.531 619.656 377.27 619.656C379.008 619.656 380.401 618.574 382.566 618.147C384.73 617.721 401.488 616.196 401.488 616.196C401.488 616.196 407.112 617.459 401.488 619.852C395.864 622.246 396.29 624.427 396.29 624.427C396.29 624.427 395.175 626.231 397.422 627.969C399.668 629.707 401.013 628.756 404.243 633.331C407.473 637.906 399.684 635.315 399.684 635.315C399.684 635.315 401.406 640.234 397.946 639.742C394.487 639.25 397.52 644.547 391.896 643.825C386.272 643.104 374.236 635.512 371.219 627.559C371.219 627.559 322.126 604.095 314.78 598.044C307.434 591.994 276.542 559.544 274.361 559.118" fill="white"/>
<path d="M258.473 532.735C264.794 529.228 272.226 528.3 279.215 530.144C291.218 533.177 322.339 577.696 326.668 582.041C330.997 586.386 339.097 588.6 346.558 596.454C358.364 608.768 375.531 619.656 377.27 619.656C379.008 619.656 380.401 618.574 382.566 618.147C384.73 617.721 401.488 616.196 401.488 616.196C401.488 616.196 407.112 617.459 401.488 619.852C395.864 622.246 396.29 624.427 396.29 624.427C396.29 624.427 395.175 626.231 397.422 627.969C399.668 629.707 401.013 628.756 404.243 633.331C407.473 637.906 399.684 635.315 399.684 635.315C399.684 635.315 401.406 640.234 397.946 639.742C394.487 639.25 397.52 644.547 391.896 643.825C386.272 643.104 374.236 635.512 371.219 627.559C371.219 627.559 322.126 604.095 314.78 598.044C307.434 591.994 276.542 559.544 274.361 559.118" stroke="#263238" stroke-width="1.63971" stroke-linecap="round" stroke-linejoin="round"/>
<path d="M251.422 527.983C251.422 527.983 275.624 521.506 284.068 526.261C292.513 531.017 308.517 553.071 308.517 553.071C308.517 553.071 289.004 570.534 282.97 568.943C276.936 567.353 258.473 564.745 258.473 564.745" fill="#E5CC86"/>
<path d="M251.422 527.983C251.422 527.983 275.624 521.506 284.068 526.261C292.513 531.017 308.517 553.071 308.517 553.071C308.517 553.071 289.004 570.534 282.97 568.943C276.936 567.353 258.473 564.745 258.473 564.745" stroke="#263238" stroke-width="1.63971" stroke-linecap="round" stroke-linejoin="round"/>
<path d="M272.409 566.873C272.409 566.873 263.636 571.694 260.406 571.694" stroke="#263238" stroke-width="1.63971" stroke-linecap="round" stroke-linejoin="round"/>
<path d="M258.473 542.688C259.211 543.983 258.965 558.166 274.361 562.577" stroke="#263238" stroke-width="1.63971" stroke-linecap="round" stroke-linejoin="round"/>
<path d="M176.176 606.26C176.176 606.26 208.97 611.885 220.284 601.932" stroke="#263238" stroke-width="1.63971" stroke-linecap="round" stroke-linejoin="round"/>
<path d="M231.498 610.08C231.498 610.08 223.3 608.637 220.283 612.851C217.266 617.065 200.836 621.05 200.836 621.05" stroke="#263238" stroke-width="1.63971" stroke-linecap="round" stroke-linejoin="round"/>
<path d="M165.584 641.381C165.584 641.381 160.846 661.812 181.063 670.896" stroke="#263238" stroke-width="1.63971" stroke-linecap="round" stroke-linejoin="round"/>
<path d="M176.176 642.792C176.176 642.792 176.291 652.86 179.455 658.369L189.507 661.649L200.755 655.385C200.755 655.385 198.361 642.513 198.148 639.906" stroke="#263238" stroke-width="1.63971" stroke-linecap="round" stroke-linejoin="round"/>
</svg>
