<svg width="1432" height="888" viewBox="0 0 1432 888" fill="none" xmlns="http://www.w3.org/2000/svg">
<mask id="mask0_521_3413" style="mask-type:alpha" maskUnits="userSpaceOnUse" x="-1" y="-1" width="1434" height="890">
<path d="M38.7027 0H0V46.7368M38.7027 0V46.7368M38.7027 0H77.4054M38.7027 46.7368H0M38.7027 46.7368H77.4054M38.7027 46.7368V93.4737M0 46.7368V93.4737M77.4054 0V46.7368M77.4054 0H116.108M77.4054 46.7368H116.108M77.4054 46.7368V93.4737M116.108 0V46.7368M116.108 0H154.811M116.108 46.7368H154.811M116.108 46.7368V93.4737M154.811 0V46.7368M154.811 0H193.514M154.811 46.7368H193.514M154.811 46.7368V93.4737M193.514 0V46.7368M193.514 0H232.216M193.514 46.7368H232.216M193.514 46.7368V93.4737M232.216 0V46.7368M232.216 0H270.919M232.216 46.7368H270.919M232.216 46.7368V93.4737M270.919 0V46.7368M270.919 0H309.622M270.919 46.7368H309.622M270.919 46.7368V93.4737M309.622 0V46.7368M309.622 0H348.324M309.622 46.7368H348.324M309.622 46.7368V93.4737M348.324 0V46.7368M348.324 0H387.027M348.324 46.7368H387.027M348.324 46.7368V93.4737M387.027 0V46.7368M387.027 0H425.73M387.027 46.7368H425.73M387.027 46.7368V93.4737M425.73 0V46.7368M425.73 0H464.432M425.73 46.7368H464.432M425.73 46.7368V93.4737M464.432 0V46.7368M464.432 0H503.135M464.432 46.7368H503.135M464.432 46.7368V93.4737M503.135 0V46.7368M503.135 0H541.838M503.135 46.7368H541.838M503.135 46.7368V93.4737M541.838 0V46.7368M541.838 0H580.541M541.838 46.7368H580.541M541.838 46.7368V93.4737M580.541 0V46.7368M580.541 0H619.243M580.541 46.7368H619.243M580.541 46.7368V93.4737M619.243 0V46.7368M619.243 0H657.946M619.243 46.7368H657.946M619.243 46.7368V93.4737M657.946 0V46.7368M657.946 0H696.649M657.946 46.7368H696.649M657.946 46.7368V93.4737M696.649 0V46.7368M696.649 0H735.351M696.649 46.7368H735.351M696.649 46.7368V93.4737M735.351 0V46.7368M735.351 0H774.054M735.351 46.7368V93.4737M735.351 46.7368H774.054M38.7027 93.4737H0M38.7027 93.4737H77.4054M38.7027 93.4737V140.211M0 93.4737V140.211M77.4054 93.4737H116.108M77.4054 93.4737V140.211M116.108 93.4737H154.811M116.108 93.4737V140.211M154.811 93.4737H193.514M154.811 93.4737V140.211M193.514 93.4737H232.216M193.514 93.4737V140.211M232.216 93.4737H270.919M232.216 93.4737V140.211M270.919 93.4737H309.622M270.919 93.4737V140.211M309.622 93.4737H348.324M309.622 93.4737V140.211M348.324 93.4737H387.027M348.324 93.4737V140.211M387.027 93.4737H425.73M387.027 93.4737V140.211M425.73 93.4737H464.432M425.73 93.4737V140.211M464.432 93.4737H503.135M464.432 93.4737V140.211M503.135 93.4737H541.838M503.135 93.4737V140.211M541.838 93.4737H580.541M541.838 93.4737V140.211M580.541 93.4737H619.243M580.541 93.4737V140.211M619.243 93.4737H657.946M619.243 93.4737V140.211M657.946 93.4737H696.649M657.946 93.4737V140.211M696.649 93.4737H735.351M696.649 93.4737V140.211M735.351 93.4737V140.211M735.351 93.4737H774.054M38.7027 140.211H0M38.7027 140.211H77.4054M38.7027 140.211V186.947M0 140.211V186.947M77.4054 140.211H116.108M77.4054 140.211V186.947M116.108 140.211H154.811M116.108 140.211V186.947M154.811 140.211H193.514M154.811 140.211V186.947M193.514 140.211H232.216M193.514 140.211V186.947M232.216 140.211H270.919M232.216 140.211V186.947M270.919 140.211H309.622M270.919 140.211V186.947M309.622 140.211H348.324M309.622 140.211V186.947M348.324 140.211H387.027M348.324 140.211V186.947M387.027 140.211H425.73M387.027 140.211V186.947M425.73 140.211H464.432M425.73 140.211V186.947M464.432 140.211H503.135M464.432 140.211V186.947M503.135 140.211H541.838M503.135 140.211V186.947M541.838 140.211H580.541M541.838 140.211V186.947M580.541 140.211H619.243M580.541 140.211V186.947M619.243 140.211H657.946M619.243 140.211V186.947M657.946 140.211H696.649M657.946 140.211V186.947M696.649 140.211H735.351M696.649 140.211V186.947M735.351 140.211V186.947M735.351 140.211H774.054M38.7027 186.947H0M38.7027 186.947H77.4054M38.7027 186.947V233.684M0 186.947V233.684M77.4054 186.947H116.108M77.4054 186.947V233.684M116.108 186.947H154.811M116.108 186.947V233.684M154.811 186.947H193.514M154.811 186.947V233.684M193.514 186.947H232.216M193.514 186.947V233.684M232.216 186.947H270.919M232.216 186.947V233.684M270.919 186.947H309.622M270.919 186.947V233.684M309.622 186.947H348.324M309.622 186.947V233.684M348.324 186.947H387.027M348.324 186.947V233.684M387.027 186.947H425.73M387.027 186.947V233.684M425.73 186.947H464.432M425.73 186.947V233.684M464.432 186.947H503.135M464.432 186.947V233.684M503.135 186.947H541.838M503.135 186.947V233.684M541.838 186.947H580.541M541.838 186.947V233.684M580.541 186.947H619.243M580.541 186.947V233.684M619.243 186.947H657.946M619.243 186.947V233.684M657.946 186.947H696.649M657.946 186.947V233.684M696.649 186.947H735.351M696.649 186.947V233.684M735.351 186.947V233.684M735.351 186.947H774.054M38.7027 233.684H0M38.7027 233.684H77.4054M38.7027 233.684V280.421M0 233.684V280.421M77.4054 233.684H116.108M77.4054 233.684V280.421M116.108 233.684H154.811M116.108 233.684V280.421M154.811 233.684H193.514M154.811 233.684V280.421M193.514 233.684H232.216M193.514 233.684V280.421M232.216 233.684H270.919M232.216 233.684V280.421M270.919 233.684H309.622M270.919 233.684V280.421M309.622 233.684H348.324M309.622 233.684V280.421M348.324 233.684H387.027M348.324 233.684V280.421M387.027 233.684H425.73M387.027 233.684V280.421M425.73 233.684H464.432M425.73 233.684V280.421M464.432 233.684H503.135M464.432 233.684V280.421M503.135 233.684H541.838M503.135 233.684V280.421M541.838 233.684H580.541M541.838 233.684V280.421M580.541 233.684H619.243M580.541 233.684V280.421M619.243 233.684H657.946M619.243 233.684V280.421M657.946 233.684H696.649M657.946 233.684V280.421M696.649 233.684H735.351M696.649 233.684V280.421M735.351 233.684V280.421M735.351 233.684H774.054M38.7027 280.421H0M38.7027 280.421H77.4054M38.7027 280.421V327.158M0 280.421V327.158M77.4054 280.421H116.108M77.4054 280.421V327.158M116.108 280.421H154.811M116.108 280.421V327.158M154.811 280.421H193.514M154.811 280.421V327.158M193.514 280.421H232.216M193.514 280.421V327.158M232.216 280.421H270.919M232.216 280.421V327.158M270.919 280.421H309.622M270.919 280.421V327.158M309.622 280.421H348.324M309.622 280.421V327.158M348.324 280.421H387.027M348.324 280.421V327.158M387.027 280.421H425.73M387.027 280.421V327.158M425.73 280.421H464.432M425.73 280.421V327.158M464.432 280.421H503.135M464.432 280.421V327.158M503.135 280.421H541.838M503.135 280.421V327.158M541.838 280.421H580.541M541.838 280.421V327.158M580.541 280.421H619.243M580.541 280.421V327.158M619.243 280.421H657.946M619.243 280.421V327.158M657.946 280.421H696.649M657.946 280.421V327.158M696.649 280.421H735.351M696.649 280.421V327.158M735.351 280.421V327.158M735.351 280.421H774.054M38.7027 327.158H0M38.7027 327.158H77.4054M38.7027 327.158V373.895M0 327.158V373.895M77.4054 327.158H116.108M77.4054 327.158V373.895M116.108 327.158H154.811M116.108 327.158V373.895M154.811 327.158H193.514M154.811 327.158V373.895M193.514 327.158H232.216M193.514 327.158V373.895M232.216 327.158H270.919M232.216 327.158V373.895M270.919 327.158H309.622M270.919 327.158V373.895M309.622 327.158H348.324M309.622 327.158V373.895M348.324 327.158H387.027M348.324 327.158V373.895M387.027 327.158H425.73M387.027 327.158V373.895M425.73 327.158H464.432M425.73 327.158V373.895M464.432 327.158H503.135M464.432 327.158V373.895M503.135 327.158H541.838M503.135 327.158V373.895M541.838 327.158H580.541M541.838 327.158V373.895M580.541 327.158H619.243M580.541 327.158V373.895M619.243 327.158H657.946M619.243 327.158V373.895M657.946 327.158H696.649M657.946 327.158V373.895M696.649 327.158H735.351M696.649 327.158V373.895M735.351 327.158V373.895M735.351 327.158H774.054M38.7027 373.895H0M38.7027 373.895H77.4054M38.7027 373.895V420.632M0 373.895V420.632M77.4054 373.895H116.108M77.4054 373.895V420.632M116.108 373.895H154.811M116.108 373.895V420.632M154.811 373.895H193.514M154.811 373.895V420.632M193.514 373.895H232.216M193.514 373.895V420.632M232.216 373.895H270.919M232.216 373.895V420.632M270.919 373.895H309.622M270.919 373.895V420.632M309.622 373.895H348.324M309.622 373.895V420.632M348.324 373.895H387.027M348.324 373.895V420.632M387.027 373.895H425.73M387.027 373.895V420.632M425.73 373.895H464.432M425.73 373.895V420.632M464.432 373.895H503.135M464.432 373.895V420.632M503.135 373.895H541.838M503.135 373.895V420.632M541.838 373.895H580.541M541.838 373.895V420.632M580.541 373.895H619.243M580.541 373.895V420.632M619.243 373.895H657.946M619.243 373.895V420.632M657.946 373.895H696.649M657.946 373.895V420.632M696.649 373.895H735.351M696.649 373.895V420.632M735.351 373.895V420.632M735.351 373.895H774.054M38.7027 420.632H0M38.7027 420.632H77.4054M38.7027 420.632V467.368M0 420.632V467.368M77.4054 420.632H116.108M77.4054 420.632V467.368M116.108 420.632H154.811M116.108 420.632V467.368M154.811 420.632H193.514M154.811 420.632V467.368M193.514 420.632H232.216M193.514 420.632V467.368M232.216 420.632H270.919M232.216 420.632V467.368M270.919 420.632H309.622M270.919 420.632V467.368M309.622 420.632H348.324M309.622 420.632V467.368M348.324 420.632H387.027M348.324 420.632V467.368M387.027 420.632H425.73M387.027 420.632V467.368M425.73 420.632H464.432M425.73 420.632V467.368M464.432 420.632H503.135M464.432 420.632V467.368M503.135 420.632H541.838M503.135 420.632V467.368M541.838 420.632H580.541M541.838 420.632V467.368M580.541 420.632H619.243M580.541 420.632V467.368M619.243 420.632H657.946M619.243 420.632V467.368M657.946 420.632H696.649M657.946 420.632V467.368M696.649 420.632H735.351M696.649 420.632V467.368M735.351 420.632V467.368M735.351 420.632H774.054M38.7027 467.368H0M38.7027 467.368H77.4054M38.7027 467.368V514.105M0 467.368V514.105M77.4054 467.368H116.108M77.4054 467.368V514.105M116.108 467.368H154.811M116.108 467.368V514.105M154.811 467.368H193.514M154.811 467.368V514.105M193.514 467.368H232.216M193.514 467.368V514.105M232.216 467.368H270.919M232.216 467.368V514.105M270.919 467.368H309.622M270.919 467.368V514.105M309.622 467.368H348.324M309.622 467.368V514.105M348.324 467.368H387.027M348.324 467.368V514.105M387.027 467.368H425.73M387.027 467.368V514.105M425.73 467.368H464.432M425.73 467.368V514.105M464.432 467.368H503.135M464.432 467.368V514.105M503.135 467.368H541.838M503.135 467.368V514.105M541.838 467.368H580.541M541.838 467.368V514.105M580.541 467.368H619.243M580.541 467.368V514.105M619.243 467.368H657.946M619.243 467.368V514.105M657.946 467.368H696.649M657.946 467.368V514.105M696.649 467.368H735.351M696.649 467.368V514.105M735.351 467.368V514.105M735.351 467.368H774.054M38.7027 514.105H0M38.7027 514.105H77.4054M38.7027 514.105V560.842M0 514.105V560.842M77.4054 514.105H116.108M77.4054 514.105V560.842M116.108 514.105H154.811M116.108 514.105V560.842M154.811 514.105H193.514M154.811 514.105V560.842M193.514 514.105H232.216M193.514 514.105V560.842M232.216 514.105H270.919M232.216 514.105V560.842M270.919 514.105H309.622M270.919 514.105V560.842M309.622 514.105H348.324M309.622 514.105V560.842M348.324 514.105H387.027M348.324 514.105V560.842M387.027 514.105H425.73M387.027 514.105V560.842M425.73 514.105H464.432M425.73 514.105V560.842M464.432 514.105H503.135M464.432 514.105V560.842M503.135 514.105H541.838M503.135 514.105V560.842M541.838 514.105H580.541M541.838 514.105V560.842M580.541 514.105H619.243M580.541 514.105V560.842M619.243 514.105H657.946M619.243 514.105V560.842M657.946 514.105H696.649M657.946 514.105V560.842M696.649 514.105H735.351M696.649 514.105V560.842M735.351 514.105V560.842M735.351 514.105H774.054M38.7027 560.842H0M38.7027 560.842H77.4054M38.7027 560.842V607.579M0 560.842V607.579M77.4054 560.842H116.108M77.4054 560.842V607.579M116.108 560.842H154.811M116.108 560.842V607.579M154.811 560.842H193.514M154.811 560.842V607.579M193.514 560.842H232.216M193.514 560.842V607.579M232.216 560.842H270.919M232.216 560.842V607.579M270.919 560.842H309.622M270.919 560.842V607.579M309.622 560.842H348.324M309.622 560.842V607.579M348.324 560.842H387.027M348.324 560.842V607.579M387.027 560.842H425.73M387.027 560.842V607.579M425.73 560.842H464.432M425.73 560.842V607.579M464.432 560.842H503.135M464.432 560.842V607.579M503.135 560.842H541.838M503.135 560.842V607.579M541.838 560.842H580.541M541.838 560.842V607.579M580.541 560.842H619.243M580.541 560.842V607.579M619.243 560.842H657.946M619.243 560.842V607.579M657.946 560.842H696.649M657.946 560.842V607.579M696.649 560.842H735.351M696.649 560.842V607.579M735.351 560.842V607.579M735.351 560.842H774.054M38.7027 607.579H0M38.7027 607.579H77.4054M38.7027 607.579V654.316M0 607.579V654.316M77.4054 607.579H116.108M77.4054 607.579V654.316M116.108 607.579H154.811M116.108 607.579V654.316M154.811 607.579H193.514M154.811 607.579V654.316M193.514 607.579H232.216M193.514 607.579V654.316M232.216 607.579H270.919M232.216 607.579V654.316M270.919 607.579H309.622M270.919 607.579V654.316M309.622 607.579H348.324M309.622 607.579V654.316M348.324 607.579H387.027M348.324 607.579V654.316M387.027 607.579H425.73M387.027 607.579V654.316M425.73 607.579H464.432M425.73 607.579V654.316M464.432 607.579H503.135M464.432 607.579V654.316M503.135 607.579H541.838M503.135 607.579V654.316M541.838 607.579H580.541M541.838 607.579V654.316M580.541 607.579H619.243M580.541 607.579V654.316M619.243 607.579H657.946M619.243 607.579V654.316M657.946 607.579H696.649M657.946 607.579V654.316M696.649 607.579H735.351M696.649 607.579V654.316M735.351 607.579V654.316M735.351 607.579H774.054M38.7027 654.316H0M38.7027 654.316H77.4054M38.7027 654.316V701.053M0 654.316V701.053M77.4054 654.316H116.108M77.4054 654.316V701.053M116.108 654.316H154.811M116.108 654.316V701.053M154.811 654.316H193.514M154.811 654.316V701.053M193.514 654.316H232.216M193.514 654.316V701.053M232.216 654.316H270.919M232.216 654.316V701.053M270.919 654.316H309.622M270.919 654.316V701.053M309.622 654.316H348.324M309.622 654.316V701.053M348.324 654.316H387.027M348.324 654.316V701.053M387.027 654.316H425.73M387.027 654.316V701.053M425.73 654.316H464.432M425.73 654.316V701.053M464.432 654.316H503.135M464.432 654.316V701.053M503.135 654.316H541.838M503.135 654.316V701.053M541.838 654.316H580.541M541.838 654.316V701.053M580.541 654.316H619.243M580.541 654.316V701.053M619.243 654.316H657.946M619.243 654.316V701.053M657.946 654.316H696.649M657.946 654.316V701.053M696.649 654.316H735.351M696.649 654.316V701.053M735.351 654.316V701.053M735.351 654.316H774.054M38.7027 701.053H0M38.7027 701.053H77.4054M38.7027 701.053V747.789M0 701.053V747.789M77.4054 701.053H116.108M77.4054 701.053V747.789M116.108 701.053H154.811M116.108 701.053V747.789M154.811 701.053H193.514M154.811 701.053V747.789M193.514 701.053H232.216M193.514 701.053V747.789M232.216 701.053H270.919M232.216 701.053V747.789M270.919 701.053H309.622M270.919 701.053V747.789M309.622 701.053H348.324M309.622 701.053V747.789M348.324 701.053H387.027M348.324 701.053V747.789M387.027 701.053H425.73M387.027 701.053V747.789M425.73 701.053H464.432M425.73 701.053V747.789M464.432 701.053H503.135M464.432 701.053V747.789M503.135 701.053H541.838M503.135 701.053V747.789M541.838 701.053H580.541M541.838 701.053V747.789M580.541 701.053H619.243M580.541 701.053V747.789M619.243 701.053H657.946M619.243 701.053V747.789M657.946 701.053H696.649M657.946 701.053V747.789M696.649 701.053H735.351M696.649 701.053V747.789M735.351 701.053V747.789M735.351 701.053H774.054M38.7027 747.789H0M38.7027 747.789H77.4054M38.7027 747.789V794.526M0 747.789V794.526M77.4054 747.789H116.108M77.4054 747.789V794.526M116.108 747.789H154.811M116.108 747.789V794.526M154.811 747.789H193.514M154.811 747.789V794.526M193.514 747.789H232.216M193.514 747.789V794.526M232.216 747.789H270.919M232.216 747.789V794.526M270.919 747.789H309.622M270.919 747.789V794.526M309.622 747.789H348.324M309.622 747.789V794.526M348.324 747.789H387.027M348.324 747.789V794.526M387.027 747.789H425.73M387.027 747.789V794.526M425.73 747.789H464.432M425.73 747.789V794.526M464.432 747.789H503.135M464.432 747.789V794.526M503.135 747.789H541.838M503.135 747.789V794.526M541.838 747.789H580.541M541.838 747.789V794.526M580.541 747.789H619.243M580.541 747.789V794.526M619.243 747.789H657.946M619.243 747.789V794.526M657.946 747.789H696.649M657.946 747.789V794.526M696.649 747.789H735.351M696.649 747.789V794.526M735.351 747.789V794.526M735.351 747.789H774.054M38.7027 794.526H0M38.7027 794.526H77.4054M38.7027 794.526V841.263M0 794.526V841.263M77.4054 794.526H116.108M77.4054 794.526V841.263M116.108 794.526H154.811M116.108 794.526V841.263M154.811 794.526H193.514M154.811 794.526V841.263M193.514 794.526H232.216M193.514 794.526V841.263M232.216 794.526H270.919M232.216 794.526V841.263M270.919 794.526H309.622M270.919 794.526V841.263M309.622 794.526H348.324M309.622 794.526V841.263M348.324 794.526H387.027M348.324 794.526V841.263M387.027 794.526H425.73M387.027 794.526V841.263M425.73 794.526H464.432M425.73 794.526V841.263M464.432 794.526H503.135M464.432 794.526V841.263M503.135 794.526H541.838M503.135 794.526V841.263M541.838 794.526H580.541M541.838 794.526V841.263M580.541 794.526H619.243M580.541 794.526V841.263M619.243 794.526H657.946M619.243 794.526V841.263M657.946 794.526H696.649M657.946 794.526V841.263M696.649 794.526H735.351M696.649 794.526V841.263M735.351 794.526V841.263M735.351 794.526H774.054M38.7027 841.263H0M38.7027 841.263H77.4054M38.7027 841.263V888M0 841.263V888H38.7027M77.4054 841.263H116.108M77.4054 841.263V888M116.108 841.263H154.811M116.108 841.263V888M154.811 841.263H193.514M154.811 841.263V888M193.514 841.263H232.216M193.514 841.263V888M232.216 841.263H270.919M232.216 841.263V888M270.919 841.263H309.622M270.919 841.263V888M309.622 841.263H348.324M309.622 841.263V888M348.324 841.263H387.027M348.324 841.263V888M387.027 841.263H425.73M387.027 841.263V888M425.73 841.263H464.432M425.73 841.263V888M464.432 841.263H503.135M464.432 841.263V888M503.135 841.263H541.838M503.135 841.263V888M541.838 841.263H580.541M541.838 841.263V888M580.541 841.263H619.243M580.541 841.263V888M619.243 841.263H657.946M619.243 841.263V888M657.946 841.263H696.649M657.946 841.263V888M696.649 841.263H735.351M696.649 841.263V888M735.351 841.263V888M735.351 841.263H774.054M38.7027 888H77.4054M77.4054 888H116.108M116.108 888H154.811M154.811 888H193.514M193.514 888H232.216M232.216 888H270.919M270.919 888H309.622M309.622 888H348.324M348.324 888H387.027M387.027 888H425.73M425.73 888H464.432M464.432 888H503.135M503.135 888H541.838M541.838 888H580.541M580.541 888H619.243M619.243 888H657.946M657.946 888H696.649M696.649 888H735.351M735.351 888H774.054M774.054 0V46.7368M774.054 0H812.757M774.054 46.7368H812.757M774.054 46.7368V93.4737M812.757 0V46.7368M812.757 0H851.459M812.757 46.7368H851.459M812.757 46.7368V93.4737M851.459 0V46.7368M851.459 0H890.162M851.459 46.7368H890.162M851.459 46.7368V93.4737M890.162 0V46.7368M890.162 0H928.865M890.162 46.7368H928.865M890.162 46.7368V93.4737M928.865 0V46.7368M928.865 0H967.568M928.865 46.7368H967.568M928.865 46.7368V93.4737M967.568 0V46.7368M967.568 0H1006.27M967.568 46.7368H1006.27M967.568 46.7368V93.4737M1006.27 0V46.7368M1006.27 0H1044.97M1006.27 46.7368H1044.97M1006.27 46.7368V93.4737M1044.97 0V46.7368M1044.97 0H1083.68M1044.97 46.7368H1083.68M1044.97 46.7368V93.4737M1083.68 0V46.7368M1083.68 0H1122.38M1083.68 46.7368H1122.38M1083.68 46.7368V93.4737M1122.38 0V46.7368M1122.38 0H1161.08M1122.38 46.7368H1161.08M1122.38 46.7368V93.4737M1161.08 0V46.7368M1161.08 0H1199.78M1161.08 46.7368H1199.78M1161.08 46.7368V93.4737M1199.78 0V46.7368M1199.78 0H1238.49M1199.78 46.7368H1238.49M1199.78 46.7368V93.4737M1238.49 0V46.7368M1238.49 0H1277.19M1238.49 46.7368H1277.19M1238.49 46.7368V93.4737M1277.19 0V46.7368M1277.19 0H1315.89M1277.19 46.7368H1315.89M1277.19 46.7368V93.4737M1315.89 0V46.7368M1315.89 0H1354.59M1315.89 46.7368H1354.59M1315.89 46.7368V93.4737M1354.59 0V46.7368M1354.59 0H1393.3M1354.59 46.7368H1393.3M1354.59 46.7368V93.4737M1393.3 0V46.7368M1393.3 0H1432V46.7368M1393.3 46.7368H1432M1393.3 46.7368V93.4737M1432 46.7368V93.4737M774.054 93.4737H812.757M774.054 93.4737V140.211M812.757 93.4737H851.459M812.757 93.4737V140.211M851.459 93.4737H890.162M851.459 93.4737V140.211M890.162 93.4737H928.865M890.162 93.4737V140.211M928.865 93.4737H967.568M928.865 93.4737V140.211M967.568 93.4737H1006.27M967.568 93.4737V140.211M1006.27 93.4737H1044.97M1006.27 93.4737V140.211M1044.97 93.4737H1083.68M1044.97 93.4737V140.211M1083.68 93.4737H1122.38M1083.68 93.4737V140.211M1122.38 93.4737H1161.08M1122.38 93.4737V140.211M1161.08 93.4737H1199.78M1161.08 93.4737V140.211M1199.78 93.4737H1238.49M1199.78 93.4737V140.211M1238.49 93.4737H1277.19M1238.49 93.4737V140.211M1277.19 93.4737H1315.89M1277.19 93.4737V140.211M1315.89 93.4737H1354.59M1315.89 93.4737V140.211M1354.59 93.4737H1393.3M1354.59 93.4737V140.211M1393.3 93.4737H1432M1393.3 93.4737V140.211M1432 93.4737V140.211M774.054 140.211H812.757M774.054 140.211V186.947M812.757 140.211H851.459M812.757 140.211V186.947M851.459 140.211H890.162M851.459 140.211V186.947M890.162 140.211H928.865M890.162 140.211V186.947M928.865 140.211H967.568M928.865 140.211V186.947M967.568 140.211H1006.27M967.568 140.211V186.947M1006.27 140.211H1044.97M1006.27 140.211V186.947M1044.97 140.211H1083.68M1044.97 140.211V186.947M1083.68 140.211H1122.38M1083.68 140.211V186.947M1122.38 140.211H1161.08M1122.38 140.211V186.947M1161.08 140.211H1199.78M1161.08 140.211V186.947M1199.78 140.211H1238.49M1199.78 140.211V186.947M1238.49 140.211H1277.19M1238.49 140.211V186.947M1277.19 140.211H1315.89M1277.19 140.211V186.947M1315.89 140.211H1354.59M1315.89 140.211V186.947M1354.59 140.211H1393.3M1354.59 140.211V186.947M1393.3 140.211H1432M1393.3 140.211V186.947M1432 140.211V186.947M774.054 186.947H812.757M774.054 186.947V233.684M812.757 186.947H851.459M812.757 186.947V233.684M851.459 186.947H890.162M851.459 186.947V233.684M890.162 186.947H928.865M890.162 186.947V233.684M928.865 186.947H967.568M928.865 186.947V233.684M967.568 186.947H1006.27M967.568 186.947V233.684M1006.27 186.947H1044.97M1006.27 186.947V233.684M1044.97 186.947H1083.68M1044.97 186.947V233.684M1083.68 186.947H1122.38M1083.68 186.947V233.684M1122.38 186.947H1161.08M1122.38 186.947V233.684M1161.08 186.947H1199.78M1161.08 186.947V233.684M1199.78 186.947H1238.49M1199.78 186.947V233.684M1238.49 186.947H1277.19M1238.49 186.947V233.684M1277.19 186.947H1315.89M1277.19 186.947V233.684M1315.89 186.947H1354.59M1315.89 186.947V233.684M1354.59 186.947H1393.3M1354.59 186.947V233.684M1393.3 186.947H1432M1393.3 186.947V233.684M1432 186.947V233.684M774.054 233.684H812.757M774.054 233.684V280.421M812.757 233.684H851.459M812.757 233.684V280.421M851.459 233.684H890.162M851.459 233.684V280.421M890.162 233.684H928.865M890.162 233.684V280.421M928.865 233.684H967.568M928.865 233.684V280.421M967.568 233.684H1006.27M967.568 233.684V280.421M1006.27 233.684H1044.97M1006.27 233.684V280.421M1044.97 233.684H1083.68M1044.97 233.684V280.421M1083.68 233.684H1122.38M1083.68 233.684V280.421M1122.38 233.684H1161.08M1122.38 233.684V280.421M1161.08 233.684H1199.78M1161.08 233.684V280.421M1199.78 233.684H1238.49M1199.78 233.684V280.421M1238.49 233.684H1277.19M1238.49 233.684V280.421M1277.19 233.684H1315.89M1277.19 233.684V280.421M1315.89 233.684H1354.59M1315.89 233.684V280.421M1354.59 233.684H1393.3M1354.59 233.684V280.421M1393.3 233.684H1432M1393.3 233.684V280.421M1432 233.684V280.421M774.054 280.421H812.757M774.054 280.421V327.158M812.757 280.421H851.459M812.757 280.421V327.158M851.459 280.421H890.162M851.459 280.421V327.158M890.162 280.421H928.865M890.162 280.421V327.158M928.865 280.421H967.568M928.865 280.421V327.158M967.568 280.421H1006.27M967.568 280.421V327.158M1006.27 280.421H1044.97M1006.27 280.421V327.158M1044.97 280.421H1083.68M1044.97 280.421V327.158M1083.68 280.421H1122.38M1083.68 280.421V327.158M1122.38 280.421H1161.08M1122.38 280.421V327.158M1161.08 280.421H1199.78M1161.08 280.421V327.158M1199.78 280.421H1238.49M1199.78 280.421V327.158M1238.49 280.421H1277.19M1238.49 280.421V327.158M1277.19 280.421H1315.89M1277.19 280.421V327.158M1315.89 280.421H1354.59M1315.89 280.421V327.158M1354.59 280.421H1393.3M1354.59 280.421V327.158M1393.3 280.421H1432M1393.3 280.421V327.158M1432 280.421V327.158M774.054 327.158H812.757M774.054 327.158V373.895M812.757 327.158H851.459M812.757 327.158V373.895M851.459 327.158H890.162M851.459 327.158V373.895M890.162 327.158H928.865M890.162 327.158V373.895M928.865 327.158H967.568M928.865 327.158V373.895M967.568 327.158H1006.27M967.568 327.158V373.895M1006.27 327.158H1044.97M1006.27 327.158V373.895M1044.97 327.158H1083.68M1044.97 327.158V373.895M1083.68 327.158H1122.38M1083.68 327.158V373.895M1122.38 327.158H1161.08M1122.38 327.158V373.895M1161.08 327.158H1199.78M1161.08 327.158V373.895M1199.78 327.158H1238.49M1199.78 327.158V373.895M1238.49 327.158H1277.19M1238.49 327.158V373.895M1277.19 327.158H1315.89M1277.19 327.158V373.895M1315.89 327.158H1354.59M1315.89 327.158V373.895M1354.59 327.158H1393.3M1354.59 327.158V373.895M1393.3 327.158H1432M1393.3 327.158V373.895M1432 327.158V373.895M774.054 373.895H812.757M774.054 373.895V420.632M812.757 373.895H851.459M812.757 373.895V420.632M851.459 373.895H890.162M851.459 373.895V420.632M890.162 373.895H928.865M890.162 373.895V420.632M928.865 373.895H967.568M928.865 373.895V420.632M967.568 373.895H1006.27M967.568 373.895V420.632M1006.27 373.895H1044.97M1006.27 373.895V420.632M1044.97 373.895H1083.68M1044.97 373.895V420.632M1083.68 373.895H1122.38M1083.68 373.895V420.632M1122.38 373.895H1161.08M1122.38 373.895V420.632M1161.08 373.895H1199.78M1161.08 373.895V420.632M1199.78 373.895H1238.49M1199.78 373.895V420.632M1238.49 373.895H1277.19M1238.49 373.895V420.632M1277.19 373.895H1315.89M1277.19 373.895V420.632M1315.89 373.895H1354.59M1315.89 373.895V420.632M1354.59 373.895H1393.3M1354.59 373.895V420.632M1393.3 373.895H1432M1393.3 373.895V420.632M1432 373.895V420.632M774.054 420.632H812.757M774.054 420.632V467.368M812.757 420.632H851.459M812.757 420.632V467.368M851.459 420.632H890.162M851.459 420.632V467.368M890.162 420.632H928.865M890.162 420.632V467.368M928.865 420.632H967.568M928.865 420.632V467.368M967.568 420.632H1006.27M967.568 420.632V467.368M1006.27 420.632H1044.97M1006.27 420.632V467.368M1044.97 420.632H1083.68M1044.97 420.632V467.368M1083.68 420.632H1122.38M1083.68 420.632V467.368M1122.38 420.632H1161.08M1122.38 420.632V467.368M1161.08 420.632H1199.78M1161.08 420.632V467.368M1199.78 420.632H1238.49M1199.78 420.632V467.368M1238.49 420.632H1277.19M1238.49 420.632V467.368M1277.19 420.632H1315.89M1277.19 420.632V467.368M1315.89 420.632H1354.59M1315.89 420.632V467.368M1354.59 420.632H1393.3M1354.59 420.632V467.368M1393.3 420.632H1432M1393.3 420.632V467.368M1432 420.632V467.368M774.054 467.368H812.757M774.054 467.368V514.105M812.757 467.368H851.459M812.757 467.368V514.105M851.459 467.368H890.162M851.459 467.368V514.105M890.162 467.368H928.865M890.162 467.368V514.105M928.865 467.368H967.568M928.865 467.368V514.105M967.568 467.368H1006.27M967.568 467.368V514.105M1006.27 467.368H1044.97M1006.27 467.368V514.105M1044.97 467.368H1083.68M1044.97 467.368V514.105M1083.68 467.368H1122.38M1083.68 467.368V514.105M1122.38 467.368H1161.08M1122.38 467.368V514.105M1161.08 467.368H1199.78M1161.08 467.368V514.105M1199.78 467.368H1238.49M1199.78 467.368V514.105M1238.49 467.368H1277.19M1238.49 467.368V514.105M1277.19 467.368H1315.89M1277.19 467.368V514.105M1315.89 467.368H1354.59M1315.89 467.368V514.105M1354.59 467.368H1393.3M1354.59 467.368V514.105M1393.3 467.368H1432M1393.3 467.368V514.105M1432 467.368V514.105M774.054 514.105H812.757M774.054 514.105V560.842M812.757 514.105H851.459M812.757 514.105V560.842M851.459 514.105H890.162M851.459 514.105V560.842M890.162 514.105H928.865M890.162 514.105V560.842M928.865 514.105H967.568M928.865 514.105V560.842M967.568 514.105H1006.27M967.568 514.105V560.842M1006.27 514.105H1044.97M1006.27 514.105V560.842M1044.97 514.105H1083.68M1044.97 514.105V560.842M1083.68 514.105H1122.38M1083.68 514.105V560.842M1122.38 514.105H1161.08M1122.38 514.105V560.842M1161.08 514.105H1199.78M1161.08 514.105V560.842M1199.78 514.105H1238.49M1199.78 514.105V560.842M1238.49 514.105H1277.19M1238.49 514.105V560.842M1277.19 514.105H1315.89M1277.19 514.105V560.842M1315.89 514.105H1354.59M1315.89 514.105V560.842M1354.59 514.105H1393.3M1354.59 514.105V560.842M1393.3 514.105H1432M1393.3 514.105V560.842M1432 514.105V560.842M774.054 560.842H812.757M774.054 560.842V607.579M812.757 560.842H851.459M812.757 560.842V607.579M851.459 560.842H890.162M851.459 560.842V607.579M890.162 560.842H928.865M890.162 560.842V607.579M928.865 560.842H967.568M928.865 560.842V607.579M967.568 560.842H1006.27M967.568 560.842V607.579M1006.27 560.842H1044.97M1006.27 560.842V607.579M1044.97 560.842H1083.68M1044.97 560.842V607.579M1083.68 560.842H1122.38M1083.68 560.842V607.579M1122.38 560.842H1161.08M1122.38 560.842V607.579M1161.08 560.842H1199.78M1161.08 560.842V607.579M1199.78 560.842H1238.49M1199.78 560.842V607.579M1238.49 560.842H1277.19M1238.49 560.842V607.579M1277.19 560.842H1315.89M1277.19 560.842V607.579M1315.89 560.842H1354.59M1315.89 560.842V607.579M1354.59 560.842H1393.3M1354.59 560.842V607.579M1393.3 560.842H1432M1393.3 560.842V607.579M1432 560.842V607.579M774.054 607.579H812.757M774.054 607.579V654.316M812.757 607.579H851.459M812.757 607.579V654.316M851.459 607.579H890.162M851.459 607.579V654.316M890.162 607.579H928.865M890.162 607.579V654.316M928.865 607.579H967.568M928.865 607.579V654.316M967.568 607.579H1006.27M967.568 607.579V654.316M1006.27 607.579H1044.97M1006.27 607.579V654.316M1044.97 607.579H1083.68M1044.97 607.579V654.316M1083.68 607.579H1122.38M1083.68 607.579V654.316M1122.38 607.579H1161.08M1122.38 607.579V654.316M1161.08 607.579H1199.78M1161.08 607.579V654.316M1199.78 607.579H1238.49M1199.78 607.579V654.316M1238.49 607.579H1277.19M1238.49 607.579V654.316M1277.19 607.579H1315.89M1277.19 607.579V654.316M1315.89 607.579H1354.59M1315.89 607.579V654.316M1354.59 607.579H1393.3M1354.59 607.579V654.316M1393.3 607.579H1432M1393.3 607.579V654.316M1432 607.579V654.316M774.054 654.316H812.757M774.054 654.316V701.053M812.757 654.316H851.459M812.757 654.316V701.053M851.459 654.316H890.162M851.459 654.316V701.053M890.162 654.316H928.865M890.162 654.316V701.053M928.865 654.316H967.568M928.865 654.316V701.053M967.568 654.316H1006.27M967.568 654.316V701.053M1006.27 654.316H1044.97M1006.27 654.316V701.053M1044.97 654.316H1083.68M1044.97 654.316V701.053M1083.68 654.316H1122.38M1083.68 654.316V701.053M1122.38 654.316H1161.08M1122.38 654.316V701.053M1161.08 654.316H1199.78M1161.08 654.316V701.053M1199.78 654.316H1238.49M1199.78 654.316V701.053M1238.49 654.316H1277.19M1238.49 654.316V701.053M1277.19 654.316H1315.89M1277.19 654.316V701.053M1315.89 654.316H1354.59M1315.89 654.316V701.053M1354.59 654.316H1393.3M1354.59 654.316V701.053M1393.3 654.316H1432M1393.3 654.316V701.053M1432 654.316V701.053M774.054 701.053H812.757M774.054 701.053V747.789M812.757 701.053H851.459M812.757 701.053V747.789M851.459 701.053H890.162M851.459 701.053V747.789M890.162 701.053H928.865M890.162 701.053V747.789M928.865 701.053H967.568M928.865 701.053V747.789M967.568 701.053H1006.27M967.568 701.053V747.789M1006.27 701.053H1044.97M1006.27 701.053V747.789M1044.97 701.053H1083.68M1044.97 701.053V747.789M1083.68 701.053H1122.38M1083.68 701.053V747.789M1122.38 701.053H1161.08M1122.38 701.053V747.789M1161.08 701.053H1199.78M1161.08 701.053V747.789M1199.78 701.053H1238.49M1199.78 701.053V747.789M1238.49 701.053H1277.19M1238.49 701.053V747.789M1277.19 701.053H1315.89M1277.19 701.053V747.789M1315.89 701.053H1354.59M1315.89 701.053V747.789M1354.59 701.053H1393.3M1354.59 701.053V747.789M1393.3 701.053H1432M1393.3 701.053V747.789M1432 701.053V747.789M774.054 747.789H812.757M774.054 747.789V794.526M812.757 747.789H851.459M812.757 747.789V794.526M851.459 747.789H890.162M851.459 747.789V794.526M890.162 747.789H928.865M890.162 747.789V794.526M928.865 747.789H967.568M928.865 747.789V794.526M967.568 747.789H1006.27M967.568 747.789V794.526M1006.27 747.789H1044.97M1006.27 747.789V794.526M1044.97 747.789H1083.68M1044.97 747.789V794.526M1083.68 747.789H1122.38M1083.68 747.789V794.526M1122.38 747.789H1161.08M1122.38 747.789V794.526M1161.08 747.789H1199.78M1161.08 747.789V794.526M1199.78 747.789H1238.49M1199.78 747.789V794.526M1238.49 747.789H1277.19M1238.49 747.789V794.526M1277.19 747.789H1315.89M1277.19 747.789V794.526M1315.89 747.789H1354.59M1315.89 747.789V794.526M1354.59 747.789H1393.3M1354.59 747.789V794.526M1393.3 747.789H1432M1393.3 747.789V794.526M1432 747.789V794.526M774.054 794.526H812.757M774.054 794.526V841.263M812.757 794.526H851.459M812.757 794.526V841.263M851.459 794.526H890.162M851.459 794.526V841.263M890.162 794.526H928.865M890.162 794.526V841.263M928.865 794.526H967.568M928.865 794.526V841.263M967.568 794.526H1006.27M967.568 794.526V841.263M1006.27 794.526H1044.97M1006.27 794.526V841.263M1044.97 794.526H1083.68M1044.97 794.526V841.263M1083.68 794.526H1122.38M1083.68 794.526V841.263M1122.38 794.526H1161.08M1122.38 794.526V841.263M1161.08 794.526H1199.78M1161.08 794.526V841.263M1199.78 794.526H1238.49M1199.78 794.526V841.263M1238.49 794.526H1277.19M1238.49 794.526V841.263M1277.19 794.526H1315.89M1277.19 794.526V841.263M1315.89 794.526H1354.59M1315.89 794.526V841.263M1354.59 794.526H1393.3M1354.59 794.526V841.263M1393.3 794.526H1432M1393.3 794.526V841.263M1432 794.526V841.263M774.054 841.263H812.757M774.054 841.263V888M812.757 841.263H851.459M812.757 841.263V888M851.459 841.263H890.162M851.459 841.263V888M890.162 841.263H928.865M890.162 841.263V888M928.865 841.263H967.568M928.865 841.263V888M967.568 841.263H1006.27M967.568 841.263V888M1006.27 841.263H1044.97M1006.27 841.263V888M1044.97 841.263H1083.68M1044.97 841.263V888M1083.68 841.263H1122.38M1083.68 841.263V888M1122.38 841.263H1161.08M1122.38 841.263V888M1161.08 841.263H1199.78M1161.08 841.263V888M1199.78 841.263H1238.49M1199.78 841.263V888M1238.49 841.263H1277.19M1238.49 841.263V888M1277.19 841.263H1315.89M1277.19 841.263V888M1315.89 841.263H1354.59M1315.89 841.263V888M1354.59 841.263H1393.3M1354.59 841.263V888M1393.3 841.263H1432M1393.3 841.263V888M1432 841.263V888H1393.3M774.054 888H812.757M812.757 888H851.459M851.459 888H890.162M890.162 888H928.865M928.865 888H967.568M967.568 888H1006.27M1006.27 888H1044.97M1044.97 888H1083.68M1083.68 888H1122.38M1122.38 888H1161.08M1161.08 888H1199.78M1199.78 888H1238.49M1238.49 888H1277.19M1277.19 888H1315.89M1315.89 888H1354.59M1354.59 888H1393.3" stroke="#B4B4B4" stroke-width="0.499911"/>
</mask>
<g mask="url(#mask0_521_3413)">
<path d="M0 0H1432V887.873H0V0Z" fill="url(#paint0_radial_521_3413)"/>
</g>
<defs>
<radialGradient id="paint0_radial_521_3413" cx="0" cy="0" r="1" gradientUnits="userSpaceOnUse" gradientTransform="translate(994.555 172.525) rotate(138.916) scale(457.83 789.663)">
<stop stop-color="#C6C5C7"/>
<stop offset="1" stop-color="#412F2F" stop-opacity="0"/>
</radialGradient>
</defs>
</svg>
