<svg width="260" height="48" viewBox="0 0 260 48" fill="none" xmlns="http://www.w3.org/2000/svg">
<g filter="url(#filter0_d_521_3438)">
<path d="M45.937 33.9922V10.288H55.6557C57.394 10.288 58.963 10.5815 60.3627 11.1684C61.785 11.7328 63.004 12.5455 64.0199 13.6066C65.0584 14.6451 65.8485 15.8867 66.3903 17.3315C66.9321 18.7764 67.203 20.3792 67.203 22.1401C67.203 23.8784 66.9321 25.4813 66.3903 26.9487C65.8485 28.3935 65.0697 29.6464 64.0538 30.7075C63.0379 31.7459 61.8188 32.5586 60.3966 33.1456C58.9743 33.71 57.394 33.9922 55.6557 33.9922H45.937ZM51.0165 30.3011L50.4747 29.4207H55.4864C56.5023 29.4207 57.4166 29.2514 58.2293 28.9127C59.042 28.5515 59.7306 28.0661 60.295 27.4566C60.8819 26.8245 61.3222 26.0569 61.6156 25.1539C61.9091 24.2509 62.0559 23.2463 62.0559 22.1401C62.0559 21.0339 61.9091 20.0406 61.6156 19.1601C61.3222 18.2571 60.8819 17.4896 60.295 16.8575C59.7306 16.2253 59.042 15.74 58.2293 15.4013C57.4166 15.0401 56.5023 14.8595 55.4864 14.8595H50.3731L51.0165 14.0468V30.3011ZM79.6197 34.3308C77.6782 34.3308 75.9851 33.9357 74.5402 33.1456C73.0954 32.3555 71.9666 31.2719 71.1539 29.8948C70.3412 28.5177 69.9348 26.9374 69.9348 25.1539C69.9348 23.7768 70.1606 22.5126 70.6121 21.3612C71.0636 20.2099 71.6957 19.2166 72.5084 18.3813C73.3212 17.5234 74.2806 16.8687 75.3868 16.4172C76.5156 15.9431 77.7347 15.7061 79.044 15.7061C80.2631 15.7061 81.3919 15.9319 82.4303 16.3834C83.4688 16.8123 84.3605 17.4331 85.1055 18.2458C85.8731 19.036 86.46 19.9729 86.8664 21.0565C87.2728 22.1401 87.4534 23.3253 87.4082 24.6121L87.3744 26.1021H72.9825L72.2037 23.156H83.4124L82.8706 23.7655V23.0205C82.8254 22.411 82.6222 21.8579 82.261 21.3612C81.9224 20.8646 81.4822 20.4808 80.9404 20.2099C80.3986 19.939 79.789 19.8035 79.1118 19.8035C78.1184 19.8035 77.2719 19.9954 76.572 20.3792C75.8948 20.763 75.3755 21.3274 75.0143 22.0724C74.6531 22.8174 74.4725 23.7204 74.4725 24.7814C74.4725 25.865 74.6983 26.8019 75.1498 27.5921C75.6239 28.3822 76.2785 29.003 77.1138 29.4545C77.9717 29.8835 78.9763 30.0979 80.1276 30.0979C80.9178 30.0979 81.6402 29.9738 82.2949 29.7254C82.9496 29.4771 83.6494 29.0482 84.3944 28.4386L86.6971 31.6556C86.0424 32.2426 85.32 32.7393 84.5299 33.1456C83.7397 33.5294 82.927 33.8229 82.0917 34.0261C81.2564 34.2292 80.4324 34.3308 79.6197 34.3308ZM96.2523 33.9922L88.7347 16.0786H94.0173L98.792 29.4545L97.6746 29.6577L102.686 16.0786H107.833L99.9434 33.9922H96.2523Z" fill="#FFB320"/>
<path d="M107.777 33.9922L117.056 10.288H121.593L130.838 33.9922H125.623L120.848 21.2258C120.713 20.8646 120.544 20.4018 120.34 19.8374C120.16 19.273 119.968 18.6748 119.765 18.0427C119.562 17.4105 119.37 16.8123 119.189 16.2479C119.008 15.661 118.873 15.1756 118.783 14.7918L119.697 14.7579C119.562 15.2772 119.403 15.819 119.223 16.3834C119.065 16.9252 118.896 17.4896 118.715 18.0765C118.534 18.6409 118.342 19.194 118.139 19.7358C117.936 20.2776 117.744 20.8081 117.564 21.3274L112.789 33.9922H107.777ZM112.078 29.0143L113.737 24.9169H124.607L126.3 29.0143H112.078ZM139.321 34.3308C138.012 34.3308 136.883 34.0486 135.935 33.4842C135.01 32.8973 134.287 32.0733 133.768 31.0122C133.271 29.9286 133.023 28.6305 133.023 27.118V16.0786H137.831V26.3391C137.831 27.1518 137.967 27.863 138.238 28.4725C138.509 29.0595 138.892 29.511 139.389 29.827C139.886 30.1431 140.495 30.3011 141.218 30.3011C141.737 30.3011 142.222 30.2221 142.674 30.0641C143.125 29.8835 143.509 29.6351 143.825 29.3191C144.141 29.003 144.39 28.6305 144.57 28.2016C144.751 27.7727 144.841 27.3099 144.841 26.8132V16.0786H149.65V33.9922H145.078L144.909 30.3011L145.789 29.8948C145.518 30.73 145.067 31.4863 144.435 32.1636C143.803 32.8408 143.046 33.3714 142.166 33.7551C141.285 34.1389 140.337 34.3308 139.321 34.3308ZM154.488 33.9922V16.0786H159.127L159.297 21.8353L158.484 20.6501C158.755 19.7245 159.195 18.8892 159.805 18.1442C160.414 17.3767 161.125 16.7784 161.938 16.3495C162.773 15.9206 163.642 15.7061 164.545 15.7061C164.929 15.7061 165.302 15.74 165.663 15.8077C166.024 15.8754 166.329 15.9544 166.577 16.0447L165.29 21.3274C165.02 21.1919 164.692 21.0791 164.308 20.9888C163.925 20.8759 163.53 20.8194 163.123 20.8194C162.581 20.8194 162.073 20.921 161.599 21.1242C161.148 21.3048 160.753 21.5757 160.414 21.9369C160.076 22.2755 159.805 22.6819 159.601 23.156C159.421 23.6301 159.331 24.1493 159.331 24.7137V33.9922H154.488ZM175.281 34.3308C173.791 34.3308 172.447 33.9245 171.251 33.1117C170.054 32.299 169.106 31.1928 168.406 29.7932C167.707 28.3935 167.357 26.7906 167.357 24.9846C167.357 23.1786 167.707 21.587 168.406 20.2099C169.129 18.8102 170.1 17.7153 171.319 16.9252C172.538 16.1125 173.926 15.7061 175.484 15.7061C176.364 15.7061 177.166 15.8416 177.888 16.1125C178.633 16.3608 179.276 16.7107 179.818 17.1622C180.383 17.6137 180.857 18.133 181.241 18.7199C181.624 19.3069 181.895 19.939 182.053 20.6163L181.037 20.4469V16.0786H185.812V33.9922H180.97V29.6916L182.053 29.59C181.873 30.2221 181.579 30.8203 181.173 31.3847C180.766 31.9491 180.258 32.4571 179.649 32.9086C179.062 33.3375 178.396 33.6874 177.651 33.9583C176.906 34.2067 176.116 34.3308 175.281 34.3308ZM176.601 30.1657C177.504 30.1657 178.294 29.9512 178.972 29.5223C179.649 29.0933 180.168 28.4951 180.529 27.7275C180.913 26.9374 181.105 26.0231 181.105 24.9846C181.105 23.9687 180.913 23.077 180.529 22.3094C180.168 21.5418 179.649 20.9436 178.972 20.5147C178.294 20.0632 177.504 19.8374 176.601 19.8374C175.721 19.8374 174.942 20.0632 174.265 20.5147C173.61 20.9436 173.091 21.5418 172.707 22.3094C172.323 23.077 172.131 23.9687 172.131 24.9846C172.131 26.0231 172.323 26.9374 172.707 27.7275C173.091 28.4951 173.61 29.0933 174.265 29.5223C174.942 29.9512 175.721 30.1657 176.601 30.1657ZM196.661 34.3308C194.99 34.3308 193.5 34.0599 192.191 33.5181C190.904 32.9537 189.865 32.1862 189.075 31.2154L192.055 28.6418C192.755 29.3868 193.534 29.9286 194.392 30.2672C195.25 30.5833 196.108 30.7413 196.965 30.7413C197.304 30.7413 197.609 30.7075 197.88 30.6397C198.173 30.5494 198.422 30.4366 198.625 30.3011C198.828 30.1431 198.975 29.9625 199.065 29.7593C199.178 29.5335 199.234 29.2965 199.234 29.0482C199.234 28.5515 199.031 28.1564 198.625 27.863C198.399 27.7501 198.049 27.6146 197.575 27.4566C197.101 27.276 196.491 27.0841 195.746 26.8809C194.595 26.5875 193.613 26.2488 192.8 25.865C192.01 25.4587 191.378 25.0072 190.904 24.5105C190.498 24.0364 190.182 23.5285 189.956 22.9867C189.753 22.4223 189.651 21.8015 189.651 21.1242C189.651 20.3115 189.832 19.5778 190.193 18.9231C190.554 18.2458 191.051 17.6702 191.683 17.1961C192.337 16.722 193.082 16.3608 193.918 16.1125C194.753 15.8416 195.633 15.7061 196.559 15.7061C197.485 15.7061 198.388 15.819 199.268 16.0447C200.149 16.2705 200.961 16.5978 201.706 17.0268C202.474 17.4331 203.14 17.9185 203.704 18.4829L201.131 21.3274C200.724 20.9436 200.261 20.5937 199.742 20.2776C199.246 19.9616 198.726 19.7132 198.185 19.5326C197.643 19.352 197.157 19.2617 196.728 19.2617C196.345 19.2617 195.995 19.2956 195.679 19.3633C195.385 19.431 195.137 19.5326 194.934 19.6681C194.73 19.8035 194.572 19.9841 194.46 20.2099C194.369 20.4131 194.324 20.6388 194.324 20.8872C194.324 21.1355 194.381 21.3725 194.493 21.5983C194.629 21.824 194.809 22.0159 195.035 22.174C195.284 22.3094 195.645 22.4674 196.119 22.648C196.616 22.8286 197.281 23.0318 198.117 23.2576C199.2 23.5511 200.115 23.8784 200.86 24.2396C201.627 24.6008 202.237 25.0185 202.688 25.4925C203.072 25.8989 203.354 26.3617 203.535 26.8809C203.715 27.4002 203.806 27.9758 203.806 28.608C203.806 29.7141 203.49 30.7075 202.858 31.5879C202.248 32.4458 201.402 33.123 200.318 33.6197C199.234 34.0938 198.015 34.3308 196.661 34.3308ZM207.64 33.9922V16.0786H212.449V33.9922H207.64ZM210.011 12.3875C209.085 12.3875 208.363 12.1618 207.843 11.7103C207.324 11.2587 207.065 10.6154 207.065 9.78006C207.065 9.0125 207.324 8.39167 207.843 7.91759C208.385 7.42093 209.108 7.1726 210.011 7.1726C210.936 7.1726 211.659 7.40964 212.178 7.88373C212.697 8.33523 212.957 8.96735 212.957 9.78006C212.957 10.5702 212.686 11.2023 212.144 11.6764C211.625 12.1505 210.914 12.3875 210.011 12.3875ZM225.915 34.3308C224.086 34.3308 222.45 33.9357 221.005 33.1456C219.583 32.3329 218.454 31.2267 217.619 29.827C216.806 28.4273 216.399 26.8245 216.399 25.0185C216.399 23.2124 216.806 21.6209 217.619 20.2438C218.454 18.8441 219.583 17.7379 221.005 16.9252C222.45 16.1125 224.086 15.7061 225.915 15.7061C227.721 15.7061 229.335 16.1125 230.757 16.9252C232.202 17.7379 233.331 18.8441 234.144 20.2438C234.956 21.6209 235.363 23.2124 235.363 25.0185C235.363 26.8245 234.956 28.4273 234.144 29.827C233.331 31.2267 232.202 32.3329 230.757 33.1456C229.335 33.9357 227.721 34.3308 225.915 34.3308ZM225.915 30.1318C226.795 30.1318 227.586 29.9173 228.285 29.4884C228.985 29.0369 229.527 28.4273 229.911 27.6598C230.317 26.8696 230.52 25.9892 230.52 25.0185C230.52 24.0251 230.317 23.1447 229.911 22.3771C229.527 21.587 228.985 20.9775 228.285 20.5485C227.586 20.097 226.795 19.8713 225.915 19.8713C225.012 19.8713 224.211 20.097 223.511 20.5485C222.811 21 222.258 21.6096 221.851 22.3771C221.445 23.1447 221.253 24.0251 221.276 25.0185C221.253 25.9892 221.445 26.8696 221.851 27.6598C222.258 28.4273 222.811 29.0369 223.511 29.4884C224.211 29.9173 225.012 30.1318 225.915 30.1318ZM238.981 33.9922V16.0786H243.586L243.721 19.7358L242.773 20.1422C243.022 19.3295 243.462 18.5958 244.094 17.9411C244.749 17.2638 245.527 16.722 246.43 16.3156C247.333 15.9093 248.282 15.7061 249.275 15.7061C250.629 15.7061 251.758 15.977 252.661 16.5188C253.587 17.0606 254.275 17.8846 254.727 18.9908C255.201 20.0744 255.438 21.4177 255.438 23.0205V33.9922H250.629V23.393C250.629 22.5803 250.517 21.9031 250.291 21.3612C250.065 20.8194 249.715 20.4244 249.241 20.176C248.79 19.9051 248.225 19.7923 247.548 19.8374C247.006 19.8374 246.498 19.9277 246.024 20.1083C245.573 20.2663 245.178 20.5034 244.839 20.8194C244.523 21.1355 244.263 21.4967 244.06 21.9031C243.879 22.3094 243.789 22.7496 243.789 23.2237V33.9922H241.419C240.899 33.9922 240.437 33.9922 240.03 33.9922C239.624 33.9922 239.274 33.9922 238.981 33.9922Z" fill="#0D161A"/>
<ellipse cx="209.881" cy="9.62965" rx="3.00232" ry="2.68629" fill="#FFB320"/>
<path d="M4.98438 6.37892C4.98438 5.25385 5.89643 4.3418 7.0215 4.3418H24.6427C33.0807 4.3418 39.9211 11.1822 39.9211 19.6203V24.5094C39.9211 32.9474 33.0807 39.7878 24.6427 39.7878H7.0215C5.89643 39.7878 4.98438 38.8758 4.98438 37.7507V6.37892Z" fill="#FFB320"/>
<path fill-rule="evenodd" clip-rule="evenodd" d="M20.4594 11.2042C20.7777 11.0205 21.1699 11.0205 21.4882 11.2042L24.8384 13.1384C25.1622 12.5962 25.5541 12.0784 26.1055 11.7549C26.7547 11.3739 27.4814 11.34 28.2727 11.5427C28.7358 11.6613 29.015 12.1328 28.8964 12.5958C28.7778 13.0589 28.3063 13.3381 27.8432 13.2195C27.3545 13.0943 27.1278 13.162 26.9815 13.2478C26.8057 13.351 26.6035 13.5642 26.3377 14.0041L29.9762 16.1048C30.2945 16.2885 30.4906 16.6282 30.4906 16.9958V26.7759C30.4906 27.1546 30.285 27.5015 29.9532 27.684C28.6504 28.4006 25.3067 30.2766 23.6112 31.5666C22.0947 32.7205 20.9738 34.204 20.9738 34.204C20.9738 34.204 19.3922 32.5189 18.2632 31.5666C16.4035 29.9981 13.3029 28.3353 12.0296 27.6801C11.6803 27.5004 11.457 27.1418 11.457 26.749V16.9958C11.457 16.6282 11.6531 16.2885 11.9715 16.1048L15.6158 14.0007C15.351 13.5631 15.1494 13.3507 14.9741 13.2478C14.8278 13.162 14.601 13.0943 14.1124 13.2195C13.6493 13.3381 13.1778 13.0589 13.0592 12.5958C12.9406 12.1328 13.2198 11.6613 13.6828 11.5427C14.4742 11.34 15.2009 11.3739 15.8501 11.7549C16.4003 12.0777 16.7918 12.594 17.1152 13.135L20.4594 11.2042Z" fill="black"/>
<path d="M27.5212 24.5206C27.3596 25.4599 26.1611 26.4571 25.3418 26.9442C24.3438 27.5375 22.951 28.5946 21.0129 30.1055C18.4121 28.1255 19.0866 27.045 19.9644 26.5872C20.4757 26.3205 21.0129 25.7148 21.0129 25.1382V24.1513L27.5703 24.2352L27.5212 24.5206Z" fill="#FFB320"/>
<path d="M14.6311 24.5206C14.7927 25.4599 15.9912 26.4571 16.8105 26.9442C17.8086 27.5375 19.2014 28.5946 21.1394 30.1055C23.7403 28.1255 23.0658 27.045 22.1879 26.5872C21.6766 26.3205 21.1394 25.7148 21.1394 25.1382V24.1513L14.582 24.2352L14.6311 24.5206Z" fill="#FFB320"/>
<rect width="13.0916" height="2.00183" rx="0.636947" transform="matrix(-1 0 0 1 27.5547 21.3945)" fill="#FFB320"/>
<path d="M27.5547 18.4519C27.5547 18.13 27.3863 17.8315 27.1108 17.6651L21.4843 14.2657C21.192 14.0891 20.8258 14.0891 20.5335 14.2657L14.907 17.6651C14.6315 17.8315 14.4631 18.13 14.4631 18.4519V20.5243H27.5547V18.4519Z" fill="#FFB320"/>
</g>
<defs>
<filter id="filter0_d_521_3438" x="0.985084" y="4.3418" width="258.452" height="43.4439" filterUnits="userSpaceOnUse" color-interpolation-filters="sRGB">
<feFlood flood-opacity="0" result="BackgroundImageFix"/>
<feColorMatrix in="SourceAlpha" type="matrix" values="0 0 0 0 0 0 0 0 0 0 0 0 0 0 0 0 0 0 127 0" result="hardAlpha"/>
<feOffset dy="3.99929"/>
<feGaussianBlur stdDeviation="1.99965"/>
<feComposite in2="hardAlpha" operator="out"/>
<feColorMatrix type="matrix" values="0 0 0 0 0 0 0 0 0 0 0 0 0 0 0 0 0 0 0.14 0"/>
<feBlend mode="normal" in2="BackgroundImageFix" result="effect1_dropShadow_521_3438"/>
<feBlend mode="normal" in="SourceGraphic" in2="effect1_dropShadow_521_3438" result="shape"/>
</filter>
</defs>
</svg>
