<svg width="172" height="172" viewBox="0 0 172 172" fill="none" xmlns="http://www.w3.org/2000/svg">
<path d="M43.6008 100.237C59.2752 100.237 72.0222 87.4896 72.0222 71.8152C72.0222 56.1408 59.2752 43.3938 43.6008 43.3938C27.9264 43.3938 15.1794 56.1408 15.1794 71.8152C15.1794 87.4896 27.9264 100.237 43.6008 100.237ZM34.2147 115.456C14.4121 119.705 0.96875 138.307 0.96875 158.564C0.96875 165.592 6.66724 171.29 13.6944 171.29H73.5072C81.1597 171.333 86.9008 164.597 86.2329 157.079C86.2329 130.505 61.7976 109.537 34.2147 115.456ZM150.174 0.761719H107.542C95.818 0.775929 86.2329 10.3682 86.2329 22.092L86.2471 84.4201C86.2471 88.9533 89.9703 92.1507 93.9849 92.1507C95.3775 92.1507 96.8057 91.767 98.1273 90.9215L115.564 78.9134H150.181C161.955 78.9134 171.497 69.371 171.497 57.5974V22.0778C171.497 10.3042 161.948 0.761719 150.174 0.761719ZM128.865 71.8152C124.943 71.8152 121.76 68.632 121.76 64.7099C121.76 60.7877 124.943 57.6045 128.865 57.6045C132.787 57.6045 135.97 60.7877 135.97 64.7099C135.97 68.632 132.787 71.8152 128.865 71.8152ZM139.537 47.6428C135.935 49.5613 131.551 50.2931 128.858 50.4992C125.369 50.4992 122.328 47.927 121.831 44.3743C121.291 40.4877 123.998 36.8995 127.884 36.3595C129.618 36.1179 131.871 35.5921 132.524 35.2866C134.606 34.0716 135.97 31.7126 135.97 29.1831C135.97 25.2681 132.78 22.0778 128.865 22.0778C124.95 22.0778 121.76 25.2681 121.76 29.1831C121.76 33.0982 118.576 36.2885 114.654 36.2885C110.732 36.2885 107.549 33.1053 107.549 29.1831C107.549 17.4309 117.113 7.86707 128.865 7.86707C140.617 7.86707 150.181 17.4309 150.181 29.1831C150.181 36.7645 146.103 43.8343 139.537 47.6428Z" fill="#B7C6D7"/>
</svg>
